<?xml version="1.0" encoding="UTF-8" standalone="no"?>
<svg
   version="1.1"
   style="display: block;"
   viewBox="0 0 2048 2048"
   width="1024"
   height="1024"
   preserveAspectRatio="none"
   id="svg63"
   sodipodi:docname="council-logo-1k-no-b-no-text.svg"
   inkscape:version="1.3.2 (091e20e, 2023-11-25, custom)"
   xmlns:inkscape="http://www.inkscape.org/namespaces/inkscape"
   xmlns:sodipodi="http://sodipodi.sourceforge.net/DTD/sodipodi-0.dtd"
   xmlns:xlink="http://www.w3.org/1999/xlink"
   xmlns="http://www.w3.org/2000/svg"
   xmlns:svg="http://www.w3.org/2000/svg">
  <sodipodi:namedview
     id="namedview63"
     pagecolor="#505050"
     bordercolor="#eeeeee"
     borderopacity="1"
     inkscape:showpageshadow="0"
     inkscape:pageopacity="0"
     inkscape:pagecheckerboard="0"
     inkscape:deskcolor="#505050"
     inkscape:zoom="1.1455078"
     inkscape:cx="912.25916"
     inkscape:cy="528.58653"
     inkscape:window-width="3440"
     inkscape:window-height="1369"
     inkscape:window-x="2152"
     inkscape:window-y="1233"
     inkscape:window-maximized="1"
     inkscape:current-layer="svg63" />
  <defs
     id="defs10">
    <inkscape:path-effect
       effect="powerclip"
       id="path-effect242"
       is_visible="true"
       lpeversion="1"
       inverse="true"
       flatten="false"
       hide_clip="false"
       message="Use fill-rule evenodd on &lt;b&gt;fill and stroke&lt;/b&gt; dialog if no flatten result after convert clip to paths." />
    <inkscape:path-effect
       effect="powerclip"
       id="path-effect108"
       is_visible="true"
       lpeversion="1"
       inverse="true"
       flatten="false"
       hide_clip="false"
       message="Use fill-rule evenodd on &lt;b&gt;fill and stroke&lt;/b&gt; dialog if no flatten result after convert clip to paths." />
    <inkscape:path-effect
       effect="powerclip"
       id="path-effect104"
       is_visible="true"
       lpeversion="1"
       inverse="true"
       flatten="false"
       hide_clip="false"
       message="Use fill-rule evenodd on &lt;b&gt;fill and stroke&lt;/b&gt; dialog if no flatten result after convert clip to paths." />
    <inkscape:path-effect
       effect="powerclip"
       id="path-effect103"
       is_visible="true"
       lpeversion="1"
       inverse="true"
       flatten="false"
       hide_clip="false"
       message="Use fill-rule evenodd on &lt;b&gt;fill and stroke&lt;/b&gt; dialog if no flatten result after convert clip to paths." />
    <inkscape:path-effect
       effect="powerclip"
       id="path-effect102"
       is_visible="true"
       lpeversion="1"
       inverse="true"
       flatten="false"
       hide_clip="false"
       message="Use fill-rule evenodd on &lt;b&gt;fill and stroke&lt;/b&gt; dialog if no flatten result after convert clip to paths." />
    <inkscape:path-effect
       effect="powerclip"
       id="path-effect101"
       is_visible="true"
       lpeversion="1"
       inverse="true"
       flatten="false"
       hide_clip="false"
       message="Use fill-rule evenodd on &lt;b&gt;fill and stroke&lt;/b&gt; dialog if no flatten result after convert clip to paths." />
    <inkscape:path-effect
       effect="powerclip"
       id="path-effect100"
       is_visible="true"
       lpeversion="1"
       inverse="true"
       flatten="false"
       hide_clip="false"
       message="Use fill-rule evenodd on &lt;b&gt;fill and stroke&lt;/b&gt; dialog if no flatten result after convert clip to paths." />
    <inkscape:path-effect
       effect="powerclip"
       id="path-effect65"
       is_visible="true"
       lpeversion="1"
       inverse="true"
       flatten="false"
       hide_clip="false"
       message="Use fill-rule evenodd on &lt;b&gt;fill and stroke&lt;/b&gt; dialog if no flatten result after convert clip to paths." />
    <linearGradient
       id="Gradient1"
       gradientUnits="userSpaceOnUse"
       x1="1159.48"
       y1="1002.24"
       x2="1000.51"
       y2="955.919">
      <stop
         class="stop0"
         offset="0"
         stop-opacity="1"
         stop-color="rgb(128,164,199)"
         id="stop1" />
      <stop
         class="stop1"
         offset="1"
         stop-opacity="1"
         stop-color="rgb(237,236,227)"
         id="stop2" />
    </linearGradient>
    <linearGradient
       id="Gradient2"
       gradientUnits="userSpaceOnUse"
       x1="880.787"
       y1="975.744"
       x2="1045.28"
       y2="929.073">
      <stop
         class="stop0"
         offset="0"
         stop-opacity="1"
         stop-color="rgb(129,168,199)"
         id="stop3" />
      <stop
         class="stop1"
         offset="1"
         stop-opacity="1"
         stop-color="rgb(239,237,229)"
         id="stop4" />
    </linearGradient>
    <linearGradient
       id="Gradient3"
       gradientUnits="userSpaceOnUse"
       x1="1290.71"
       y1="909.42"
       x2="1118.83"
       y2="788.079">
      <stop
         class="stop0"
         offset="0"
         stop-opacity="1"
         stop-color="rgb(206,218,219)"
         id="stop5" />
      <stop
         class="stop1"
         offset="1"
         stop-opacity="1"
         stop-color="rgb(235,231,230)"
         id="stop6" />
    </linearGradient>
    <linearGradient
       id="Gradient4"
       gradientUnits="userSpaceOnUse"
       x1="743.103"
       y1="885.127"
       x2="1001.88"
       y2="779.282">
      <stop
         class="stop0"
         offset="0"
         stop-opacity="1"
         stop-color="rgb(150,195,214)"
         id="stop7" />
      <stop
         class="stop1"
         offset="1"
         stop-opacity="1"
         stop-color="rgb(240,233,228)"
         id="stop8" />
    </linearGradient>
    <linearGradient
       id="Gradient5"
       gradientUnits="userSpaceOnUse"
       x1="1299.34"
       y1="860.674"
       x2="1056.38"
       y2="791.347">
      <stop
         class="stop0"
         offset="0"
         stop-opacity="1"
         stop-color="rgb(148,186,209)"
         id="stop9" />
      <stop
         class="stop1"
         offset="1"
         stop-opacity="1"
         stop-color="rgb(238,234,228)"
         id="stop10" />
    </linearGradient>
    <filter
       id="mask-powermask-path-effect65_inverse"
       inkscape:label="filtermask-powermask-path-effect65"
       style="color-interpolation-filters:sRGB"
       height="100"
       width="100"
       x="-50"
       y="-50">
      <feColorMatrix
         id="mask-powermask-path-effect65_primitive1"
         values="1"
         type="saturate"
         result="fbSourceGraphic" />
      <feColorMatrix
         id="mask-powermask-path-effect65_primitive2"
         values="-1 0 0 0 1 0 -1 0 0 1 0 0 -1 0 1 0 0 0 1 0 "
         in="fbSourceGraphic" />
    </filter>
    <clipPath
       clipPathUnits="userSpaceOnUse"
       id="clipPath65">
      <path
         fill="#e6e9e6"
         d="m 716.202,1467.21 c 24.509,0.48 49.023,0.59 73.535,0.32 -1.257,21.91 -0.523,49.98 -0.463,72.44 l -72.437,0.3 c -1.194,-23.43 -0.625,-49.39 -0.635,-73.06 z"
         id="path65"
         style="display:block;stroke-width:1" />
    </clipPath>
    <clipPath
       clipPathUnits="userSpaceOnUse"
       id="clipPath100">
      <path
         fill="rgb(203,148,146)"
         d="m 1419.4,1038.58 c 5.24,1.02 9.03,3.5 9.69,9.14 -3.8,14.5 -42.64,74.1 -51.4,91.13 -1.07,2.08 -3.74,4.27 -5.64,5.69 -1.8,-0.32 -3.54,-0.93 -5.15,-1.79 -3.39,-1.79 -3.78,-3.41 -4.65,-6.48 0.48,-2.73 52.95,-92.27 57.15,-97.69 z"
         id="path100"
         style="display:none;fill:#ffffff;stroke-width:1" />
      <path
         id="lpe_path-effect100"
         style="fill:#ffffff;stroke-width:1"
         class="powerclip"
         d="m 1319.53,1015.1573 h 126.3714 v 147.4731 H 1319.53 Z m 99.87,23.4227 c -4.2,5.42 -56.67,94.96 -57.15,97.69 0.87,3.07 1.26,4.69 4.65,6.48 1.61,0.86 3.35,1.47 5.15,1.79 1.9,-1.42 4.57,-3.61 5.64,-5.69 8.76,-17.03 47.6,-76.63 51.4,-91.13 -0.66,-5.64 -4.45,-8.12 -9.69,-9.14 z" />
    </clipPath>
    <clipPath
       clipPathUnits="userSpaceOnUse"
       id="clipPath101">
      <path
         fill="rgb(152,119,164)"
         d="m 969.975,1299.12 c 15.458,-0.64 97.295,-2.1 107.275,0.67 4.18,6.02 1.42,9.53 -2.91,14.54 -10.61,1.82 -98.842,1.91 -103.828,-1.55 -2.167,-1.5 -3.008,-3.79 -3.182,-6.35 -0.221,-3.26 0.832,-4.86 2.645,-7.31 z"
         id="path101"
         style="display:none;fill:#ffffff;stroke-width:1" />
      <path
         id="lpe_path-effect101"
         style="fill:#ffffff;stroke-width:1"
         class="powerclip"
         d="m 947.99003,1249.8828 h 149.98807 v 81.5727 H 947.99003 Z M 969.975,1299.12 c -1.813,2.45 -2.866,4.05 -2.645,7.31 0.174,2.56 1.015,4.85 3.182,6.35 4.986,3.46 93.218,3.37 103.828,1.55 4.33,-5.01 7.09,-8.52 2.91,-14.54 -9.98,-2.77 -91.817,-1.31 -107.275,-0.67 z" />
    </clipPath>
    <clipPath
       clipPathUnits="userSpaceOnUse"
       id="clipPath102">
      <path
         fill="rgb(133,168,197)"
         d="m 626.373,1040.81 c 1.733,0.05 6.142,0.69 6.837,2.09 6.126,12.3 55.437,87.8 55.47,93.91 -1.175,3.42 -2.769,4.33 -5.502,6.7 -2.499,0.44 -6.404,0.64 -8.029,-1.81 -18.533,-27.91 -35.965,-57.19 -52.287,-86.48 -3.998,-7.17 -2.041,-9.94 3.511,-14.41 z"
         id="path102"
         style="display:none;fill:#ffffff;stroke-width:1" />
      <path
         id="lpe_path-effect102"
         style="fill:#ffffff;stroke-width:1"
         class="powerclip"
         d="M 603.55373,1015.9841 H 728.778 v 146.4795 H 603.55373 Z M 626.373,1040.81 c -5.552,4.47 -7.509,7.24 -3.511,14.41 16.322,29.29 33.754,58.57 52.287,86.48 1.625,2.45 5.53,2.25 8.029,1.81 2.733,-2.37 4.327,-3.28 5.502,-6.7 -0.033,-6.11 -49.344,-81.61 -55.47,-93.91 -0.695,-1.4 -5.104,-2.04 -6.837,-2.09 z" />
    </clipPath>
    <clipPath
       clipPathUnits="userSpaceOnUse"
       id="clipPath103">
      <path
         fill="rgb(152,119,164)"
         d="m 684.93,615.899 c 4.78,0.964 8.603,2.033 10.666,6.785 -0.34,2.838 -2.1,5.932 -3.679,8.333 -13.73,20.879 -27.957,41.418 -41.182,62.635 -4.345,6.971 -8.695,14.453 -13.943,20.741 -3.522,0.917 -5.685,-0.123 -8.167,-2.426 -0.813,-2.419 -1.43,-3.941 -1.245,-6.489 0.219,-3.04 3.006,-10.407 4.475,-12.644 9.565,-14.561 42.433,-68.6 53.075,-76.935 z"
         id="path103"
         style="display:none;fill:#ffffff;stroke-width:1" />
      <path
         id="lpe_path-effect103"
         style="fill:#ffffff;stroke-width:1"
         class="powerclip"
         d="M 609.51175,599.96852 H 735.707 V 748.606 H 609.51175 Z M 684.93,615.899 c -10.642,8.335 -43.51,62.374 -53.075,76.935 -1.469,2.237 -4.256,9.604 -4.475,12.644 -0.185,2.548 0.432,4.07 1.245,6.489 2.482,2.303 4.645,3.343 8.167,2.426 5.248,-6.288 9.598,-13.77 13.943,-20.741 13.225,-21.217 27.452,-41.756 41.182,-62.635 1.579,-2.401 3.339,-5.495 3.679,-8.333 -2.063,-4.752 -5.886,-5.821 -10.666,-6.785 z" />
    </clipPath>
    <clipPath
       clipPathUnits="userSpaceOnUse"
       id="clipPath104">
      <path
         fill="rgb(229,162,90)"
         d="m 972.687,471.138 c 31.003,-1.657 65.963,0.358 97.183,0.012 5.61,-0.063 15.33,10.997 3.89,15.53 -12.93,-0.292 -99.502,1.631 -104.909,-1.803 -3.671,-5.884 -0.395,-9.382 3.836,-13.738 z"
         id="path104"
         style="display:none;fill:#ffffff;stroke-width:1" />
      <path
         id="lpe_path-effect104"
         style="fill:#ffffff;stroke-width:1"
         class="powerclip"
         d="m 948.29223,454.54486 h 149.24897 v 88.06849 H 948.29223 Z M 972.687,471.138 v 0.001 c -4.231,4.356 -7.507,7.854 -3.836,13.738 5.407,3.434 91.979,1.511 104.909,1.803 11.44,-4.533 1.72,-15.593 -3.89,-15.53 -31.22,0.346 -66.18,-1.669 -97.183,-0.012 z" />
    </clipPath>
    <clipPath
       clipPathUnits="userSpaceOnUse"
       id="clipPath108">
      <path
         fill="rgb(203,148,146)"
         d="m 1358.84,616.789 1.36,0.043 c 2.56,0.065 6.14,-0.085 7.87,2.354 17.92,25.326 35.29,51.741 51.64,78.129 4.32,6.982 0.76,13.586 -4.89,18.083 -0.6,-0.043 -3.8,-0.332 -4.22,-1.151 -15.76,-30.593 -41.58,-60.499 -57.29,-90.471 0.61,-3.284 2.93,-4.658 5.53,-6.987 z"
         id="path108"
         style="display:none;fill:#ffffff;stroke-width:1" />
      <path
         id="lpe_path-effect108"
         style="fill:#ffffff;stroke-width:1"
         class="powerclip"
         d="m 1312.19,599.08172 h 125.08 v 148.88723 h -125.08 z m 46.65,17.70728 c -2.6,2.329 -4.92,3.703 -5.53,6.987 15.71,29.972 41.53,59.878 57.29,90.471 0.42,0.819 3.62,1.108 4.22,1.151 5.65,-4.497 9.21,-11.101 4.89,-18.083 -16.35,-26.388 -33.72,-52.803 -51.64,-78.129 -1.73,-2.439 -5.31,-2.289 -7.87,-2.354 z" />
    </clipPath>
    <clipPath
       clipPathUnits="userSpaceOnUse"
       id="clipPath228">
      <use
         x="0"
         y="0"
         xlink:href="#g227"
         id="use228" />
    </clipPath>
    <clipPath
       clipPathUnits="userSpaceOnUse"
       id="clipPath229">
      <g
         id="g242"
         clip-path="url(#clipPath228)"
         style="display:none">
        <g
           inkscape:label="Clip"
           id="g241">
          <path
             d="m 1022.9219,989.88672 c -9.37,8.72698 -18.4807,17.74348 -27.30471,27.02348 -1.201,36.2099 0.39659,72.9817 -0.19141,109.2617 -0.102,6.3 -0.0632,13.717 0.33984,19.957 5.51498,0.4 10.82328,0.8497 16.36328,0.9297 l -0.168,-81.5703 c -0.04,-12.82 -0.6209,-30.408 0.039,-42.918 4.44,-4.69 5.46,-5.8105 11,-9.4805 4.75,3.65 6.9917,5.2394 11.0117,9.8594 1,41.0199 -0.8103,83.4321 0.4297,124.0821 5.43,-0.19 10.9777,-0.2422 16.3477,-0.9922 0.09,-40.09 1.5015,-89.8309 -0.3985,-129.0508 -5.88,-7.26 -19.8887,-21.13559 -27.4687,-27.10158 z"
             style="fill:#ffffff"
             id="path229" />
          <path
             d="m 1233.75,742.56641 c -8.83,9.00998 -20.3591,21.40061 -29.5391,29.55859 -8.8199,0.025 -18.4101,-0.14519 -27.1601,0.13281 -10.42,7.80199 -19.2011,15.84993 -24.8711,27.75391 -11.59,0.099 -27.1389,-0.1585 -38.3789,0.6875 -6.2,5.98499 -12.45,11.90845 -18.75,17.77344 0.03,20.12396 -0.8213,49.4551 0.7187,68.91406 8.63,9.64598 32.4807,33.62705 42.3907,41.70703 h 142.7812 c 0.57,-5.26999 1.1495,-9.90848 1.2695,-15.23047 -42.1799,-0.027 -88.89,0.91969 -130.75,-0.44531 -1.91,-0.027 -6.4112,-0.0318 -7.7812,-1.21485 -9.99,-8.64198 -24.571,-20.91786 -32.2109,-31.46484 -0.36,-18.28996 -0.489,-36.58594 -0.379,-54.87891 3.71,-3.63499 8.2819,-8.38235 12.1719,-11.65234 9.47,0.087 18.9385,0.11313 28.3985,0.0781 2.46,17.49796 10.8217,22.22455 24.0117,34.64453 l 105.4179,0.22656 c -0.32,-5.02399 -0.5517,-10.16373 -1.2617,-15.13672 -29.0099,-0.102 -69.8072,0.90678 -97.8672,-0.82422 -5.92,-4.36499 -7.9228,-6.21295 -12.8828,-11.71094 -0.61,-7.16198 -0.697,-11.02485 -0.457,-18.21484 3.78,-5.46899 10.1475,-11.56595 14.9375,-16.46094 8.9,-0.051 21.6797,0.27013 30.1797,-1.04687 10.25,-9.69698 21.8728,-21.56764 32.3828,-30.51563 -3.02,-3.91699 -7.9211,-11.17369 -12.3711,-12.67968 z"
             style="fill:#ffffff"
             id="path230" />
          <path
             d="m 1095.9219,646.34375 c 0.13,21.41096 -1.501,53.67854 1.539,74.6875 0.63,4.32899 9.9374,13.65432 13.2774,17.19531 -12.54,12.95998 -37.4579,35.91059 -47.5078,48.60156 -0.83,38.27593 -0.091,79.21524 0.039,117.66016 7.97,10.02398 57.2804,58.92395 67.3203,66.33594 5.63,-0.35 21.6521,-1.52715 26.3321,0.21484 0.4087,-0.0672 0.892,-0.10758 1.4297,-0.125 0.1794,-0.006 0.4499,0.0554 0.6406,0.0547 1.7275,-0.0108 3.7089,0.14626 5.7226,0.48047 0.7886,0.12967 1.4564,0.27485 2.1641,0.4414 0.3896,0.0916 0.8154,0.16502 1.1641,0.26563 0.136,0.0392 0.2386,0.0768 0.3672,0.11719 0.8071,0.2535 1.504,0.52376 1.9179,0.8125 4.24,-3.405 28.571,-2.16144 34.711,-2.14844 l 65.3125,0.0937 c 1.63,-5.62799 2.639,-11.10495 3.789,-16.83594 -45.7899,-1.194 -93.0121,0.83875 -139.082,-0.28125 -11.77,-9.75498 -46.2283,-44.91124 -55.9883,-55.82422 -1.69,-29.44094 -0.2497,-74.73406 -0.1797,-105.375 14.41,-15.41197 30.829,-30.38806 45.6289,-45.45703 7.78,-7.92298 19.8014,-18.40752 25.4414,-27.5625 0.75,-13.34797 0.077,-38.04009 -0.3828,-51.41406 -5.03,-3.01399 -10.597,-5.35944 -15.957,-7.77344 l -0.4102,55.54688 c -3.55,3.93999 -7.3118,7.3601 -11.1718,10.99609 -3.12,-2.59999 -6.54,-6.17132 -9.5,-9.07031 -1.4,-20.38796 -0.1289,-46.38083 -0.6289,-67.67578 z"
             style="fill:#ffffff"
             id="path231" />
          <path
             d="m 951.01172,647.69531 -16.0586,2.98828 0.043,66.02735 c -3.79399,4.54399 -5.85238,6.63341 -10.10937,10.6914 -4.51199,-4.10199 -8.12442,-7.24788 -12.06641,-11.92187 0.011,-17.84597 0.33663,-36.71551 -0.10937,-54.48047 -5.14599,2.352 -10.62008,4.97869 -15.78907,7.17969 -0.043,16.55696 -0.61912,36.32312 0.0469,52.62109 16.30097,21.75696 53.93266,50.83054 71.01562,71.9375 0.321,22.49196 0.48057,44.98651 0.47657,67.48047 0.014,11.96898 0.40262,27.4659 -0.48438,39.17187 -12.08897,13.80198 -40.7869,43.49825 -54.79687,54.69922 l -140.98438,0.0195 c 1.339,5.49699 2.66601,11.46573 4.125,16.88672 32.86794,0.036 68.12032,-0.59396 100.78125,0.20703 2.09625,-0.45874 5.23247,-0.77507 8.88672,-0.98046 3.65427,-0.20578 7.8266,-0.30138 12,-0.32032 8.34681,-0.0379 16.69285,0.23207 20.88281,0.53907 21.32196,-18.09897 44.2207,-41.8857 64.22266,-61.97266 0.991,-13.13297 1.10406,-27.67956 0.78906,-40.89453 -0.631,-26.46295 1.19272,-54.3684 -0.48828,-80.65235 -9.62698,-12.77797 -35.1904,-35.00518 -48.10937,-49.16015 6.28198,-6.52299 10.91332,-11.19458 15.69531,-18.97656 0.19,-23.69696 0.20225,-47.39389 0.0312,-71.08985 z"
             style="fill:#ffffff"
             id="path232" />
          <path
             d="m 814.53516,740.64453 c -4.93999,5.14299 -7.65198,8.04539 -11.91797,13.73438 9.57098,9.93098 23.30302,24.17014 34,32.57812 9.31498,-0.002 18.87898,-0.12409 28.16797,0.004 5.56599,5.35199 10.38966,9.93348 15.47265,15.73047 -0.003,6.38798 0.12688,12.9497 -0.32812,19.30468 -4.90299,4.63899 -7.34764,6.99754 -12.89063,10.89453 -24.16895,2.347 -71.52052,1.04851 -97.85547,1.0625 l -2.38281,15.07813 c 34.72093,0.156 69.44313,0.13359 104.16406,-0.0664 13.73398,-7.33298 23.78069,-18.73962 24.67969,-34.55859 9.29198,-0.245 18.58393,-0.32881 27.87891,-0.25781 l 12.40625,11.7539 c 0.222,18.89397 0.31334,37.78864 0.27734,56.6836 -10.22898,9.94198 -21.64655,21.50989 -32.26953,30.79687 l -9.6875,0.40625 c -40.05592,0.024 -89.9107,-1.41828 -129.26563,0.13672 l 1.50391,15.03906 92.52734,0.0664 c 15.74997,0.002 35.5021,0.44775 51.03907,-0.28125 9.11598,-7.56998 34.32457,-31.25721 41.72656,-40.49219 0.389,-21.18096 0.66337,-48.33645 -0.39063,-69.4414 -6.93998,-7.27899 -12.28935,-12.25983 -20.02734,-18.75782 -10.30398,-0.078 -24.52964,0.23413 -34.51562,-0.67187 -5.93499,-8.76798 -16.06568,-19.82014 -24.47266,-26.32813 -9.66098,-0.83299 -17.50146,-0.73134 -27.14844,-0.65234 -12.94497,-10.19298 -21.16642,-23.69173 -30.6914,-31.76172 z"
             style="fill:#ffffff"
             id="path233" />
          <path
             d="m 1014.5117,635.91406 c -5.12,0.117 -10.4607,0.59875 -15.59373,0.96875 5.13303,-0.37 10.47373,-0.85175 15.59373,-0.96875 z m -12.7305,140.05078 c -1.5699,5.28199 -0.122,40.48925 -0.582,48.57422 -1.12,19.69294 1.0303,42.52659 -0.4297,62.26953 -0.31,-4.79198 0.3213,-17.65182 -1.51169,-20.50781 -0.352,21.45396 0.95129,48.05254 -0.17969,68.5625 -23.27795,29.76894 -53.83057,52.49871 -78.01953,80.59762 -0.031,36.56 -0.4809,73.9576 -0.004,110.4375 l 16.65625,6.7032 c -0.258,-33.13 -1.18213,-76.8915 -0.0781,-109.4414 0.162,-0.26 0.32128,-0.5196 0.48828,-0.7696 14.11298,-21.5799 71.61948,-64.84023 76.01948,-83.82419 3.33,-14.35098 0.7303,-32.54841 0.8203,-47.35938 -6.3899,-12.42296 2.5806,-65.4239 -6.1093,-72.54687 -2.27,1.99999 -2.2718,2.70831 -4.7618,3.07031 -3.3899,-6.31998 -2.1786,-35.99266 -2.3086,-45.76563 z"
             style="fill:#ffffff"
             id="path234" />
          <path
             d="m 1014.5117,635.91406 c -5.12,0.117 -10.4607,0.59875 -15.59373,0.96875 l 0.33984,229.41797 c 1.83299,2.856 1.20169,15.71582 1.51169,20.50781 1.46,-19.74296 -0.6903,-42.57657 0.4297,-62.26953 0.46,-8.08498 -0.9879,-43.29223 0.582,-48.57422 0.13,9.77298 -1.0813,39.44564 2.3086,45.76563 2.49,-0.362 2.4918,-1.07032 4.7618,-3.07031 8.6899,7.12298 -0.2806,60.1239 6.1093,72.54687 l 0.02,-159.10937 c -0.01,-31.74094 0.4112,-64.55266 -0.4688,-96.1836 z"
             style="fill:#ffffff"
             id="path235" />
          <path
             d="m 1045.2891,828.40234 c -2.63,0.32075 -4.5195,2.05161 -5.8828,4.58985 -0.6817,1.26911 -1.2313,2.73934 -1.6758,4.33593 -0.4445,1.5966 -0.7866,3.32093 -1.0469,5.09375 -1.0414,7.0913 -0.8202,14.98717 -1.0352,18.84766 -0.2687,-0.29412 -0.4801,-0.74611 -0.6484,-1.32422 -0.1683,-0.5781 -0.2937,-1.28297 -0.3828,-2.07422 -0.1783,-1.58249 -0.2181,-3.52126 -0.207,-5.53125 0.022,-4.01998 0.2517,-8.32675 0.012,-10.65625 -0.23,3.09999 -0.5287,8.00138 -0.6328,12.85547 -0.052,2.42705 -0.054,4.84431 0.023,7.01563 0.078,2.17131 0.2353,4.09803 0.5078,5.55078 l 1.168,0.76172 2.6211,-1.55469 c 0.5812,0.80225 1.0408,1.89986 1.3906,3.21875 0.3498,1.31889 0.5899,2.85905 0.7266,4.55078 0.5464,6.76695 -0.5384,15.94143 -2.6719,22.92188 -0.5334,1.74511 -1.1339,3.35495 -1.7891,4.7539 -0.6552,1.39896 -1.3662,2.5871 -2.125,3.4961 -0.44,-1.18 -0.9508,-2.43001 -1.3008,-3.625 -0.11,12.28297 -2.7214,30.20883 1.5586,41.63281 4.09,10.89698 62.3913,64.71798 75.5313,79.41798 1.81,30.9399 0.2895,77.8404 0.2695,109.8203 5.86,-1.9 11.1489,-3.9788 16.8789,-6.2187 -1.25,-36.29 -0.097,-74.1209 -0.8867,-110.8008 -13.46,-14.25 -74.1314,-69.14437 -76.9414,-80.94534 -2.13,-8.96999 -0.7405,-20.79124 -0.7305,-30.07422 0.03,-20.69996 0.3789,-41.44186 -0.1211,-62.13282 l -0.2187,-0.84765 c -1.005,-4.07774 -0.7344,-7.07501 -1.3711,-10.0586 -0.2123,-0.99452 -0.5245,-1.98903 -1.0195,-3.01953 z"
             style="fill:#ffffff"
             id="path236" />
          <path
             d="m 1032.3789,636.20703 c -1.3,86.89983 -0.4091,178.30305 -0.039,265.42188 0.35,1.19499 0.8608,2.445 1.3008,3.625 6.07,-7.27199 9.1188,-32.52342 4.4688,-38.94141 l -2.6211,1.55469 -1.168,-0.76172 c -1.09,-5.81099 -0.3584,-19.22189 0.1016,-25.42188 0.48,4.65899 -0.9235,17.23295 1.2265,19.58594 0.43,-7.72098 -0.8793,-31.58419 9.6407,-32.86719 1.98,4.122 1.0506,7.64114 2.3906,13.07813 l 0.2187,0.84765 c 0.67,-41.08591 0.9611,-82.17861 0.8711,-123.26953 0.05,-26.32494 0.7105,-55.94255 -0.2695,-81.9375 -5.25,-0.301 -10.9111,-0.73006 -16.1211,-0.91406 z"
             style="fill:#ffffff"
             id="path237" />
          <path
             d="m 897.98828,969.90234 c -8.34686,0.0379 -16.69423,0.38329 -20.88672,1.30078 -0.058,8.31299 -17.78423,22.31117 -23.82422,27.66016 -17.52996,1.58602 -45.73391,0.40544 -64.42187,0.64844 l 7.27734,16.70698 c 18.79496,0.78 42.64973,0.1594 61.55469,-0.1406 10.90698,-8.71 23.82415,-21.18834 33.82812,-31.02732 l -0.0859,-14.01953 c 8.07498,0.03 19.71242,0.42215 27.4414,-0.58984 -4.18999,-0.307 -12.53595,-0.57694 -20.88281,-0.53907 z"
             style="fill:#ffffff"
             id="path238" />
          <path
             d="m 1158.3516,970.91406 c -0.5377,0.0174 -1.021,0.0578 -1.4297,0.125 l 0.1562,14.22266 c 8.28,8.39898 24.7808,23.87688 34.0508,31.04688 20.06,-0.16 40.1215,-0.2202 60.1914,-0.1602 l 7.418,-16.47262 c -20.12,-0.95 -42.5282,-0.41512 -62.8281,-0.32812 -6.77,-5.01999 -22.4221,-18.55674 -25.5821,-26.26172 -1.8112,-1.2635 -8.213,-2.29378 -11.9765,-2.17188 z"
             style="fill:#ffffff"
             id="path239" />
          <path
             d="m 1071.9688,1032.1484 c -0.9,17.26 -0.3693,36.7207 -0.1993,54.1407 0.18,18.9099 -0.1107,38.6622 0.4493,57.4922 l 14.582,-3.961 2.0078,-1.3398 c 0.96,-6.48 0.3725,-26.1815 0.3125,-33.6914 l -0.1406,-57.6485 c -3.92,-5.32 -10.8818,-12.4222 -17.0117,-14.9922 z"
             style="fill:#ffffff"
             id="path240" />
          <path
             d="m 973.71484,1032.8984 c -6.10699,4.95 -10.40338,8.2016 -15.60937,14.1016 -0.051,13.52 -1.69678,83.3509 0.82422,91.4609 l 2.27734,1.3282 13.72656,2.7812 c 0.013,-11 1.04225,-107.5119 -1.21875,-109.6719 z"
             style="fill:#ffffff"
             id="path241" />
        </g>
      </g>
      <path
         id="lpe_path-effect242"
         class="powerclip"
         d="m 739.66228,607.1033 h 568.68382 v 568.8868 H 739.66228 Z m 283.25962,382.78342 c -9.37,8.72698 -18.4807,17.74348 -27.30471,27.02348 -1.201,36.2099 0.39659,72.9817 -0.19141,109.2617 -0.102,6.3 -0.0632,13.717 0.33984,19.957 5.51498,0.4 10.82328,0.8497 16.36328,0.9297 l -0.168,-81.5703 c -0.04,-12.82 -0.6209,-30.408 0.039,-42.918 4.44,-4.69 5.46,-5.8105 11,-9.4805 4.75,3.65 6.9917,5.2394 11.0117,9.8594 1,41.0199 -0.8103,83.4321 0.4297,124.0821 5.43,-0.19 10.9777,-0.2422 16.3477,-0.9922 0.09,-40.09 1.5015,-89.8309 -0.3985,-129.0508 -5.88,-7.26 -19.8887,-21.13559 -27.4687,-27.10158 z M 1233.75,742.56641 c -8.83,9.00998 -20.3591,21.40061 -29.5391,29.55859 -8.8199,0.025 -18.4101,-0.14519 -27.1601,0.13281 -10.42,7.80199 -19.2011,15.84993 -24.8711,27.75391 -11.59,0.099 -27.1389,-0.1585 -38.3789,0.6875 -6.2,5.98499 -12.45,11.90845 -18.75,17.77344 0.03,20.12396 -0.8213,49.4551 0.7187,68.91406 8.63,9.64598 32.4807,33.62705 42.3907,41.70703 h 142.7812 c 0.57,-5.26999 1.1495,-9.90848 1.2695,-15.23047 -42.1799,-0.027 -88.89,0.91969 -130.75,-0.44531 -1.91,-0.027 -6.4112,-0.0318 -7.7812,-1.21485 -9.99,-8.64198 -24.571,-20.91786 -32.2109,-31.46484 -0.36,-18.28996 -0.489,-36.58594 -0.379,-54.87891 3.71,-3.63499 8.2819,-8.38235 12.1719,-11.65234 9.47,0.087 18.9385,0.11313 28.3985,0.0781 2.46,17.49796 10.8217,22.22455 24.0117,34.64453 l 105.4179,0.22656 c -0.32,-5.02399 -0.5517,-10.16373 -1.2617,-15.13672 -29.0099,-0.102 -69.8072,0.90678 -97.8672,-0.82422 -5.92,-4.36499 -7.9228,-6.21295 -12.8828,-11.71094 -0.61,-7.16198 -0.697,-11.02485 -0.457,-18.21484 3.78,-5.46899 10.1475,-11.56595 14.9375,-16.46094 8.9,-0.051 21.6797,0.27013 30.1797,-1.04687 10.25,-9.69698 21.8728,-21.56764 32.3828,-30.51563 -3.02,-3.91699 -7.9211,-11.17369 -12.3711,-12.67968 z m -137.8281,-96.22266 c 0.13,21.41096 -1.501,53.67854 1.539,74.6875 0.63,4.32899 9.9374,13.65432 13.2774,17.19531 -12.54,12.95998 -37.4579,35.91059 -47.5078,48.60156 -0.83,38.27593 -0.091,79.21524 0.039,117.66016 7.97,10.02398 57.2804,58.92395 67.3203,66.33594 5.63,-0.35 21.6521,-1.52715 26.3321,0.21484 0.4087,-0.0672 0.892,-0.10758 1.4297,-0.125 0.1794,-0.006 0.4499,0.0554 0.6406,0.0547 1.7275,-0.0108 3.7089,0.14626 5.7226,0.48047 0.7886,0.12967 1.4564,0.27485 2.1641,0.4414 0.3896,0.0916 0.8154,0.16502 1.1641,0.26563 0.136,0.0392 0.2386,0.0768 0.3672,0.11719 0.8071,0.2535 1.504,0.52376 1.9179,0.8125 4.24,-3.405 28.571,-2.16144 34.711,-2.14844 l 65.3125,0.0937 c 1.63,-5.62799 2.639,-11.10495 3.789,-16.83594 -45.7899,-1.194 -93.0121,0.83875 -139.082,-0.28125 -11.77,-9.75498 -46.2283,-44.91124 -55.9883,-55.82422 -1.69,-29.44094 -0.2497,-74.73406 -0.1797,-105.375 14.41,-15.41197 30.829,-30.38806 45.6289,-45.45703 7.78,-7.92298 19.8014,-18.40752 25.4414,-27.5625 0.75,-13.34797 0.077,-38.04009 -0.3828,-51.41406 -5.03,-3.01399 -10.597,-5.35944 -15.957,-7.77344 l -0.4102,55.54688 c -3.55,3.93999 -7.3118,7.3601 -11.1718,10.99609 -3.12,-2.59999 -6.54,-6.17132 -9.5,-9.07031 -1.4,-20.38796 -0.1289,-46.38083 -0.6289,-67.67578 z m -144.91018,1.35156 -16.0586,2.98828 0.043,66.02735 c -3.79399,4.54399 -5.85238,6.63341 -10.10937,10.6914 -4.51199,-4.10199 -8.12442,-7.24788 -12.06641,-11.92187 0.011,-17.84597 0.33663,-36.71551 -0.10937,-54.48047 -5.14599,2.352 -10.62008,4.97869 -15.78907,7.17969 -0.043,16.55696 -0.61912,36.32312 0.0469,52.62109 16.30097,21.75696 53.93266,50.83054 71.01562,71.9375 0.321,22.49196 0.48057,44.98651 0.47657,67.48047 0.014,11.96898 0.40262,27.4659 -0.48438,39.17187 -12.08897,13.80198 -40.7869,43.49825 -54.79687,54.69922 l -140.98438,0.0195 c 1.339,5.49699 2.66601,11.46573 4.125,16.88672 32.86794,0.036 68.12032,-0.59396 100.78125,0.20703 2.09625,-0.45874 5.23247,-0.77507 8.88672,-0.98046 3.65427,-0.20578 7.8266,-0.30138 12,-0.32032 8.34681,-0.0379 16.69285,0.23207 20.88281,0.53907 21.32196,-18.09897 44.2207,-41.8857 64.22266,-61.97266 0.991,-13.13297 1.10406,-27.67956 0.78906,-40.89453 -0.631,-26.46295 1.19272,-54.3684 -0.48828,-80.65235 -9.62698,-12.77797 -35.1904,-35.00518 -48.10937,-49.16015 6.28198,-6.52299 10.91332,-11.19458 15.69531,-18.97656 0.19,-23.69696 0.20225,-47.39389 0.0312,-71.08985 z m -136.47656,92.94922 c -4.93999,5.14299 -7.65198,8.04539 -11.91797,13.73438 9.57098,9.93098 23.30302,24.17014 34,32.57812 9.31498,-0.002 18.87898,-0.12409 28.16797,0.004 5.56599,5.35199 10.38966,9.93348 15.47265,15.73047 -0.003,6.38798 0.12688,12.9497 -0.32812,19.30468 -4.90299,4.63899 -7.34764,6.99754 -12.89063,10.89453 -24.16895,2.347 -71.52052,1.04851 -97.85547,1.0625 l -2.38281,15.07813 c 34.72093,0.156 69.44313,0.13359 104.16406,-0.0664 13.73398,-7.33298 23.78069,-18.73962 24.67969,-34.55859 9.29198,-0.245 18.58393,-0.32881 27.87891,-0.25781 l 12.40625,11.7539 c 0.222,18.89397 0.31334,37.78864 0.27734,56.6836 -10.22898,9.94198 -21.64655,21.50989 -32.26953,30.79687 l -9.6875,0.40625 c -40.05592,0.024 -89.9107,-1.41828 -129.26563,0.13672 l 1.50391,15.03906 92.52734,0.0664 c 15.74997,0.002 35.5021,0.44775 51.03907,-0.28125 9.11598,-7.56998 34.32457,-31.25721 41.72656,-40.49219 0.389,-21.18096 0.66337,-48.33645 -0.39063,-69.4414 -6.93998,-7.27899 -12.28935,-12.25983 -20.02734,-18.75782 -10.30398,-0.078 -24.52964,0.23413 -34.51562,-0.67187 -5.93499,-8.76798 -16.06568,-19.82014 -24.47266,-26.32813 -9.66098,-0.83299 -17.50146,-0.73134 -27.14844,-0.65234 -12.94497,-10.19298 -21.16642,-23.69173 -30.6914,-31.76172 z M 1014.5117,635.91406 c -5.12,0.117 -10.4607,0.59875 -15.59373,0.96875 5.13303,-0.37 10.47373,-0.85175 15.59373,-0.96875 z m -12.7305,140.05078 c -1.5699,5.28199 -0.122,40.48925 -0.582,48.57422 -1.12,19.69294 1.0303,42.52659 -0.4297,62.26953 -0.31,-4.79198 0.3213,-17.65182 -1.51169,-20.50781 -0.352,21.45396 0.95129,48.05254 -0.17969,68.5625 -23.27795,29.76894 -53.83057,52.49871 -78.01953,80.59762 -0.031,36.56 -0.4809,73.9576 -0.004,110.4375 l 16.65625,6.7032 c -0.258,-33.13 -1.18213,-76.8915 -0.0781,-109.4414 0.162,-0.26 0.32128,-0.5196 0.48828,-0.7696 14.11298,-21.5799 71.61948,-64.84023 76.01948,-83.82419 3.33,-14.35098 0.7303,-32.54841 0.8203,-47.35938 -6.3899,-12.42296 2.5806,-65.4239 -6.1093,-72.54687 -2.27,1.99999 -2.2718,2.70831 -4.7618,3.07031 -3.3899,-6.31998 -2.1786,-35.99266 -2.3086,-45.76563 z m 12.7305,-140.05078 c -5.12,0.117 -10.4607,0.59875 -15.59373,0.96875 l 0.33984,229.41797 c 1.83299,2.856 1.20169,15.71582 1.51169,20.50781 1.46,-19.74296 -0.6903,-42.57657 0.4297,-62.26953 0.46,-8.08498 -0.9879,-43.29223 0.582,-48.57422 0.13,9.77298 -1.0813,39.44564 2.3086,45.76563 2.49,-0.362 2.4918,-1.07032 4.7618,-3.07031 8.6899,7.12298 -0.2806,60.1239 6.1093,72.54687 l 0.02,-159.10937 c -0.01,-31.74094 0.4112,-64.55266 -0.4688,-96.1836 z m 30.7774,192.48828 c -2.63,0.32075 -4.5195,2.05161 -5.8828,4.58985 -0.6817,1.26911 -1.2313,2.73934 -1.6758,4.33593 -0.4445,1.5966 -0.7866,3.32093 -1.0469,5.09375 -1.0414,7.0913 -0.8202,14.98717 -1.0352,18.84766 -0.2687,-0.29412 -0.4801,-0.74611 -0.6484,-1.32422 -0.1683,-0.5781 -0.2937,-1.28297 -0.3828,-2.07422 -0.1783,-1.58249 -0.2181,-3.52126 -0.207,-5.53125 0.022,-4.01998 0.2517,-8.32675 0.012,-10.65625 -0.23,3.09999 -0.5287,8.00138 -0.6328,12.85547 -0.052,2.42705 -0.054,4.84431 0.023,7.01563 0.078,2.17131 0.2353,4.09803 0.5078,5.55078 l 1.168,0.76172 2.6211,-1.55469 c 0.5812,0.80225 1.0408,1.89986 1.3906,3.21875 0.3498,1.31889 0.5899,2.85905 0.7266,4.55078 0.5464,6.76695 -0.5384,15.94143 -2.6719,22.92188 -0.5334,1.74511 -1.1339,3.35495 -1.7891,4.7539 -0.6552,1.39896 -1.3662,2.5871 -2.125,3.4961 -0.44,-1.18 -0.9508,-2.43001 -1.3008,-3.625 -0.11,12.28297 -2.7214,30.20883 1.5586,41.63281 4.09,10.89698 62.3913,64.71798 75.5313,79.41798 1.81,30.9399 0.2895,77.8404 0.2695,109.8203 5.86,-1.9 11.1489,-3.9788 16.8789,-6.2187 -1.25,-36.29 -0.097,-74.1209 -0.8867,-110.8008 -13.46,-14.25 -74.1314,-69.14437 -76.9414,-80.94534 -2.13,-8.96999 -0.7405,-20.79124 -0.7305,-30.07422 0.03,-20.69996 0.3789,-41.44186 -0.1211,-62.13282 l -0.2187,-0.84765 c -1.005,-4.07774 -0.7344,-7.07501 -1.3711,-10.0586 -0.2123,-0.99452 -0.5245,-1.98903 -1.0195,-3.01953 z m -12.9102,-192.19531 c -1.3,86.89983 -0.4091,178.30305 -0.039,265.42188 0.35,1.19499 0.8608,2.445 1.3008,3.625 6.07,-7.27199 9.1188,-32.52342 4.4688,-38.94141 l -2.6211,1.55469 -1.168,-0.76172 c -1.09,-5.81099 -0.3584,-19.22189 0.1016,-25.42188 0.48,4.65899 -0.9235,17.23295 1.2265,19.58594 0.43,-7.72098 -0.8793,-31.58419 9.6407,-32.86719 1.98,4.122 1.0506,7.64114 2.3906,13.07813 l 0.2187,0.84765 c 0.67,-41.08591 0.9611,-82.17861 0.8711,-123.26953 0.05,-26.32494 0.7105,-55.94255 -0.2695,-81.9375 -5.25,-0.301 -10.9111,-0.73006 -16.1211,-0.91406 z M 897.98828,969.90234 c -8.34686,0.0379 -16.69423,0.38329 -20.88672,1.30078 -0.058,8.31299 -17.78423,22.31117 -23.82422,27.66016 -17.52996,1.58602 -45.73391,0.40544 -64.42187,0.64844 l 7.27734,16.70698 c 18.79496,0.78 42.64973,0.1594 61.55469,-0.1406 10.90698,-8.71 23.82415,-21.18834 33.82812,-31.02732 l -0.0859,-14.01953 c 8.07498,0.03 19.71242,0.42215 27.4414,-0.58984 -4.18999,-0.307 -12.53595,-0.57694 -20.88281,-0.53907 z m 260.36332,1.01172 c -0.5377,0.0174 -1.021,0.0578 -1.4297,0.125 l 0.1562,14.22266 c 8.28,8.39898 24.7808,23.87688 34.0508,31.04688 20.06,-0.16 40.1215,-0.2202 60.1914,-0.1602 l 7.418,-16.47262 c -20.12,-0.95 -42.5282,-0.41512 -62.8281,-0.32812 -6.77,-5.01999 -22.4221,-18.55674 -25.5821,-26.26172 -1.8112,-1.2635 -8.213,-2.29378 -11.9765,-2.17188 z m -86.3828,61.23434 c -0.9,17.26 -0.3693,36.7207 -0.1993,54.1407 0.18,18.9099 -0.1107,38.6622 0.4493,57.4922 l 14.582,-3.961 2.0078,-1.3398 c 0.96,-6.48 0.3725,-26.1815 0.3125,-33.6914 l -0.1406,-57.6485 c -3.92,-5.32 -10.8818,-12.4222 -17.0117,-14.9922 z m -98.25396,0.75 c -6.10699,4.95 -10.40338,8.2016 -15.60937,14.1016 -0.051,13.52 -1.69678,83.3509 0.82422,91.4609 l 2.27734,1.3282 13.72656,2.7812 c 0.013,-11 1.04225,-107.5119 -1.21875,-109.6719 z" />
    </clipPath>
  </defs>
  <path
     fill="rgb(27,44,50)"
     d="m 1004.51,613.003 c 109.4281,-9.2547 220.0357,53.68649 268.6837,151.99917 50.3521,96.4005 36.669,221.53811 -33.7717,304.50213 -67.4972,83.7982 -185.8336,121.003 -289.21536,91.4352 C 843.22097,1132.841 758.93015,1035.6588 746.98699,925.57594 732.46593,818.76856 787.08034,707.12301 879.83617,652.43576 917.47502,629.60633 960.60319,616.03549 1004.51,613.003 Z"
     id="path11"
     style="fill:#000000"
     clip-path="url(#clipPath229)"
     inkscape:path-effect="#path-effect242"
     inkscape:original-d="m 1004.51,613.003 c 109.4281,-9.2547 220.0357,53.68649 268.6837,151.99917 50.3521,96.4005 36.669,221.53811 -33.7717,304.50213 -67.4972,83.7982 -185.8336,121.003 -289.21536,91.4352 C 843.22097,1132.841 758.93015,1035.6588 746.98699,925.57594 732.46593,818.76856 787.08034,707.12301 879.83617,652.43576 917.47502,629.60633 960.60319,616.03549 1004.51,613.003 Z"
     transform="translate(8.7297528,47.140665)" />
  <path
     transform="translate(8.7297528,47.140665)"
     fill="rgb(27,44,50)"
     d="m 970.899,460.264 c 18.35,-0.939 39.411,0.11 58.081,-0.446 13.15,0.542 27.64,-1.057 40.68,0.265 33.84,3.429 20.74,34.56 18.64,56.411 -0.92,9.517 -6.57,15.438 -13.4,20.238 -25.83,1.722 -76.347,0.442 -103.278,0.144 -5.171,-3.006 -11.11,-7.753 -12.36,-13.738 -4.353,-20.851 -15.443,-54.068 11.637,-62.874 z"
     id="path27"
     style="fill:#000000"
     clip-path="url(#clipPath104)"
     inkscape:path-effect="#path-effect104"
     inkscape:original-d="m 970.899,460.264 c 18.35,-0.939 39.411,0.11 58.081,-0.446 13.15,0.542 27.64,-1.057 40.68,0.265 33.84,3.429 20.74,34.56 18.64,56.411 -0.92,9.517 -6.57,15.438 -13.4,20.238 -25.83,1.722 -76.347,0.442 -103.278,0.144 -5.171,-3.006 -11.11,-7.753 -12.36,-13.738 -4.353,-20.851 -15.443,-54.068 11.637,-62.874 z" />
  <path
     fill="rgb(27,44,50)"
     d="m 1308.7498,710.28166 c 3.06,-0.399 2.92,-0.402 5.96,0.159 7.77,5.25 51.81,75.258 59.67,87.797 -8.43,19.655 -37.61,49.72 -53.12,67.053 l -3.46,-10.336 c -16.13,-50.527 -40.94,-84.186 -75.38,-123.047 22.13,-6.127 44.63,-16.026 66.33,-21.626 z"
     id="path29"
     style="fill:#000000" />
  <path
     fill="rgb(27,44,50)"
     d="m 751.57275,709.86866 c 20.192,4.145 51.41,15.159 71.798,21.728 -34.065,37.346 -55.496,68.979 -72.708,117.005 l -4.653,15.271 c -13.279,-13.107 -48.649,-49.191 -54.278,-66.245 11.096,-17.906 22.551,-35.588 34.356,-53.034 7.01,-10.531 16.666,-26.234 25.485,-34.725 z"
     id="path30"
     style="fill:#000000" />
  <path
     transform="translate(8.7297528,47.140665)"
     fill="rgb(27,44,50)"
     d="m 1354.8,604.137 c 8.1,-0.381 17.32,1.083 22.45,8.313 8.06,13.084 19.63,28.119 26.76,41.43 9.74,18.165 34.86,38.952 26.63,60.076 -5.5,14.093 -23.54,20.429 -35.9,26.52 -4.59,1.42 -13.36,4.622 -17.05,0.357 -8.49,-9.782 -15.53,-21.302 -22.61,-32.15 -12.34,-19.268 -24.97,-38.346 -37.89,-57.229 6.84,-19.318 15.55,-41.902 37.61,-47.317 z"
     id="path31"
     style="fill:#000000"
     clip-path="url(#clipPath108)"
     inkscape:path-effect="#path-effect108"
     inkscape:original-d="m 1354.8,604.137 c 8.1,-0.381 17.32,1.083 22.45,8.313 8.06,13.084 19.63,28.119 26.76,41.43 9.74,18.165 34.86,38.952 26.63,60.076 -5.5,14.093 -23.54,20.429 -35.9,26.52 -4.59,1.42 -13.36,4.622 -17.05,0.357 -8.49,-9.782 -15.53,-21.302 -22.61,-32.15 -12.34,-19.268 -24.97,-38.346 -37.89,-57.229 6.84,-19.318 15.55,-41.902 37.61,-47.317 z" />
  <path
     transform="translate(8.7297528,47.140665)"
     fill="rgb(27,44,50)"
     d="m 970.395,1255.3 c 34.885,-0.75 72.315,-0.27 107.295,-0.22 11.85,10.68 12.47,22.13 14.68,37.19 2.27,15.45 -1.5,26.82 -16.68,32.93 -16.46,1.18 -98.891,2.82 -109.579,-1.97 -5.174,-2.32 -9.449,-7.18 -11.49,-12.42 -4.111,-10.55 0.265,-35.6 5.21,-45.88 2.462,-5.12 5.189,-7.87 10.564,-9.63 z"
     id="path33"
     style="fill:#000000"
     clip-path="url(#clipPath101)"
     inkscape:path-effect="#path-effect101"
     inkscape:original-d="m 970.395,1255.3 c 34.885,-0.75 72.315,-0.27 107.295,-0.22 11.85,10.68 12.47,22.13 14.68,37.19 2.27,15.45 -1.5,26.82 -16.68,32.93 -16.46,1.18 -98.891,2.82 -109.579,-1.97 -5.174,-2.32 -9.449,-7.18 -11.49,-12.42 -4.111,-10.55 0.265,-35.6 5.21,-45.88 2.462,-5.12 5.189,-7.87 10.564,-9.63 z" />
  <path
     fill="rgb(27,44,50)"
     d="m 682.258,605.222 c 29.073,-3.115 39.784,23.075 48.449,45.849 -1.603,2.702 -6.843,10.916 -8.702,13.022 -12.336,13.978 -43.049,72.371 -56.295,79.513 -17.842,-1.494 -61.688,-23.384 -48.894,-45.548 10.972,-19.008 48.351,-84.879 65.442,-92.836 z"
     id="path35"
     style="fill:#000000"
     clip-path="url(#clipPath103)"
     inkscape:path-effect="#path-effect103"
     inkscape:original-d="m 682.258,605.222 c 29.073,-3.115 39.784,23.075 48.449,45.849 -1.603,2.702 -6.843,10.916 -8.702,13.022 -12.336,13.978 -43.049,72.371 -56.295,79.513 -17.842,-1.494 -61.688,-23.384 -48.894,-45.548 10.972,-19.008 48.351,-84.879 65.442,-92.836 z"
     transform="translate(8.7297528,47.140665)" />
  <path
     fill="rgb(27,58,61)"
     d="m 1319.4598,1008.6567 c 11.14,9.976 46.12,45.674 54.66,56.614 -4.66,11.41 -48.55,91.36 -55.99,95.55 -4.13,2.33 -11.97,-0.33 -16.33,-1.3 -17.98,-4.64 -41.87,-9.95 -58.89,-15.72 34.42,-33.99 65.47,-88.11 76.55,-135.144 z"
     id="path37"
     style="fill:#000000" />
  <path
     transform="translate(8.7297528,47.140665)"
     fill="rgb(27,58,61)"
     d="m 1398.51,1020.35 c 17.87,-1.38 47.45,4.21 41.65,31.24 -1.21,5.63 -11.03,21.24 -14.52,26.76 -14.18,22.42 -25.62,46.35 -39.54,68.86 -4.31,6.92 -9.9,9 -17.52,10.42 -22.31,0.11 -33.2,-20.22 -44.05,-36.67 4.01,-9.65 20.14,-36.63 26,-46.4 9.17,-15.29 18.41,-33.92 27.47,-48.55 7.7,-4.08 12.12,-4.58 20.51,-5.66 z"
     id="path38"
     style="fill:#000000"
     clip-path="url(#clipPath100)"
     inkscape:path-effect="#path-effect100"
     inkscape:original-d="m 1398.51,1020.35 c 17.87,-1.38 47.45,4.21 41.65,31.24 -1.21,5.63 -11.03,21.24 -14.52,26.76 -14.18,22.42 -25.62,46.35 -39.54,68.86 -4.31,6.92 -9.9,9 -17.52,10.42 -22.31,0.11 -33.2,-20.22 -44.05,-36.67 4.01,-9.65 20.14,-36.63 26,-46.4 9.17,-15.29 18.41,-33.92 27.47,-48.55 7.7,-4.08 12.12,-4.58 20.51,-5.66 z" />
  <path
     fill="rgb(27,58,61)"
     d="m 745.25975,1010.9327 c 0.346,0.366 12.571,34.393 13.928,37.718 15.009,36.8 36.564,65.37 62.33,95.15 -17.66,5.65 -37.812,10.44 -55.915,15.13 -5.649,1.16 -11.71,2.88 -17.214,1.7 -7.874,-5.63 -50.774,-81.98 -56.014,-94.51 9.334,-13.88 39.834,-42.148 52.885,-55.188 z"
     id="path40"
     style="fill:#000000" />
  <path
     transform="translate(8.7297528,47.140665)"
     fill="rgb(27,58,61)"
     d="m 634.024,1021.13 c 12.178,-0.61 24.247,0.66 35.854,4.44 4.598,6.7 12.019,21.02 16.319,28.54 12.657,21.99 25.184,44.06 37.581,66.21 -6.917,13.27 -16.62,24.89 -28.445,34.06 -12.508,5.73 -24.157,3.76 -31.627,-8.32 -17.154,-27.76 -33.314,-56.2 -49.724,-84.39 -12.348,-21.21 -2.772,-34.99 20.042,-40.54 z"
     id="path41"
     style="fill:#000000"
     clip-path="url(#clipPath102)"
     inkscape:path-effect="#path-effect102"
     inkscape:original-d="m 634.024,1021.13 c 12.178,-0.61 24.247,0.66 35.854,4.44 4.598,6.7 12.019,21.02 16.319,28.54 12.657,21.99 25.184,44.06 37.581,66.21 -6.917,13.27 -16.62,24.89 -28.445,34.06 -12.508,5.73 -24.157,3.76 -31.627,-8.32 -17.154,-27.76 -33.314,-56.2 -49.724,-84.39 -12.348,-21.21 -2.772,-34.99 20.042,-40.54 z" />
  <path
     fill="rgb(27,44,50)"
     d="m 956.37975,1220.5507 c 60.48005,12.62 88.27005,13.72 149.93005,0.13 -4.56,14.57 -8.83,30.33 -13.11,45.07 -0.84,2.54 -1.7,5.07 -2.57,7.6 -1.61,4.64 -3.98,12.52 -8.87,14.67 -5.59,2.45 -97.32205,2.16 -101.52905,-0.32 -9.746,-5.75 -19.819,-54.81 -23.851,-67.15 z"
     id="path43"
     style="fill:#000000" />
  <path
     fill="rgb(27,58,61)"
     d="m 998.52175,597.63266 c 27.58805,-0.172 59.56805,-0.849 86.84805,0.345 6.63,10.938 15.05,45.483 19.31,59.975 -12.24,-3.145 -28.07,-5.018 -40.71,-6.646 -34.85,-3.379 -70.01405,-1.058 -104.11405,6.872 4.457,-18.177 10.078,-43.334 17.416,-59.969 z"
     id="path46"
     style="fill:#000000" />
  <path
     fill="rgb(27,58,61)"
     d="m 834.22775,1155.1407 h 1.515 c 4.371,3.23 10.378,9.68 14.385,13.74 -32.391,9.41 -67.42,17.94 -100.229,25.99 -2.577,0.91 -3.632,1.1 -6.264,1.64 -3.671,-0.88 -5.848,-3.84 -8.543,-6.62 3.349,-6.22 4.252,-8.03 8.874,-13.47 16.853,-0.6 72.948,-15.72 90.262,-21.28 z"
     id="path52"
     style="fill:#000000" />
  <path
     fill="rgb(27,44,50)"
     d="m 675.50375,804.10966 c 1.028,0.689 14.696,18.851 17.226,21.856 15.953,18.777 32.236,37.272 48.842,55.474 -1.173,6.238 -1.048,12.916 -3.58,18.445 l -1.345,0.48 -2.941,-2.864 c -21.141,-25.438 -55.594,-60.201 -74.268,-85.76 5.418,-2.41 10.775,-4.954 16.066,-7.631 z"
     id="path53"
     style="fill:#000000" />
  <path
     fill="rgb(27,44,50)"
     d="m 1390.3798,804.01566 c 5.58,3.097 10.75,4.743 16.75,6.881 -2.83,4.408 -6.06,8.193 -9.46,12.167 -20.77,24.267 -41.27,49.103 -63.18,72.351 l -6.04,6.406 -4.13,-19.914 c 20.09,-20.501 49.78,-54.558 66.06,-77.891 z"
     id="path54"
     style="fill:#000000" />
  <path
     fill="rgb(27,58,61)"
     d="m 738.34675,972.96966 c 1.606,1.632 3.752,18.219 4.317,21.8 -14.361,10.84204 -31.662,30.19704 -45.272,42.56704 -6.29,5.717 -11.466,12.894 -18.606,18.494 -4.156,0.97 -7.455,-0.37 -11.706,-1.44 -3.012,-1.54 -4.188,-5.94 -5.423,-9.11 24.496,-19.905 53.539,-49.82504 76.69,-72.31104 z"
     id="path55"
     style="fill:#000000" />
  <path
     fill="rgb(27,58,61)"
     d="m 1229.4698,1154.7607 c 15.38,5.41 77.47,21.57 92.8,21.34 4.22,5.68 5.2,7.35 8.27,13.67 -3.26,3.22 -5.42,6.29 -10.08,6.02 -29.23,-10.25 -71.94,-16.76 -104.43,-27.48 z"
     id="path56"
     style="fill:#000000" />
  <path
     fill="rgb(27,58,61)"
     d="m 1326.8498,971.55266 c 15.81,10.042 44.25,47.83004 61.31,60.33504 3.22,2.361 14.38,12.317 15.29,15.181 -0.91,3.582 -1.32,3.672 -3.66,6.442 l -11.17,3.42 c -19.58,-17.294 -46.02,-45.512 -65.34,-64.59904 z"
     id="path57"
     style="fill:#000000" />
  <path
     fill="rgb(27,44,50)"
     d="m 753.63175,676.78066 c 9.854,1.754 33.35,10.366 43.466,13.759 17.184,5.764 36.155,11.471 52.854,17.928 l -9.019,7.129 c -1.683,1.726 -3.152,3.049 -4.922,4.661 -3.801,0.365 -78.921,-24.877 -85.149,-27.959 -4.032,-5.151 -0.737,-11.175 2.77,-15.518 z"
     id="path58"
     style="fill:#000000" />
  <path
     fill="rgb(27,44,50)"
     d="m 1307.7998,677.11966 c 3.4,0.547 4.93,2.144 7.12,4.452 1.55,4.374 0.66,10.748 -4.08,12.77 -9.79,4.178 -20.41,7.038 -30.59,10.258 -14.37,4.657 -28.71,9.415 -43.01,14.273 -3.97,1.305 -5.96,2.491 -9.12,0.887 l -12.83,-10.779 c 27.4,-10.989 63.51,-21.572 92.51,-31.861 z"
     id="path59"
     style="fill:#000000" />
  <path
     fill="rgb(27,44,50)"
     d="m 921.88775,1208.3407 20.207,8.52 c 5.525,24.36 17.24,57.89 21.395,80.09 -0.865,2.56 -3.279,3.75 -5.614,5.42 l -8.044,5.75 c -3.666,-10.14 -7.885,-27.74 -11.019,-38.76 -5.638,-19.83 -12.177,-41.09 -16.925,-61.02 z"
     id="path60"
     style="fill:#000000" />
  <path
     fill="rgb(27,44,50)"
     d="m 1138.9798,1209.0707 1.18,0.66 c -0.81,7.7 -24.63,89.51 -27.96,95.23 -3.26,0.73 -1.54,0.71 -5.45,-1.63 l -7.75,-6.39 c 1.3,-9.15 5.88,-23.43 8.59,-32.75 4.61,-15.76 9.1,-31.56 13.49,-47.38 z"
     id="path61"
     style="fill:#000000" />
  <path
     fill="rgb(27,58,61)"
     d="m 949.40975,573.37766 c 5.585,2.011 10.485,7.336 14.789,11.502 -5.006,19.18 -14.434,58.466 -21.06,75.604 -2.423,2.774 -5.211,2.942 -8.901,3.865 -3.479,1.263 -7.049,2.685 -10.521,4.01 7.465,-30.041 17.177,-65.063 25.693,-94.981 z"
     id="path62"
     style="fill:#000000" />
  <path
     fill="rgb(27,58,61)"
     d="m 1113.6598,573.92266 c 3.91,3.539 23.43,82.922 26.94,94.767 l -10.63,-4.057 -8.86,-3.3 c -6.15,-21.203 -16.39,-55.889 -20.61,-76.852 z"
     id="path63"
     style="fill:#000000" />
</svg>
