<?xml version="1.0" encoding="UTF-8" standalone="no"?>
<svg
   version="1.1"
   style="display: block;"
   viewBox="0 0 2048 2048"
   width="1024"
   height="1024"
   preserveAspectRatio="none"
   id="svg63"
   sodipodi:docname="council-logo-1k-no-b.svg"
   inkscape:version="1.3.2 (091e20e, 2023-11-25, custom)"
   xmlns:inkscape="http://www.inkscape.org/namespaces/inkscape"
   xmlns:sodipodi="http://sodipodi.sourceforge.net/DTD/sodipodi-0.dtd"
   xmlns:xlink="http://www.w3.org/1999/xlink"
   xmlns="http://www.w3.org/2000/svg"
   xmlns:svg="http://www.w3.org/2000/svg">
  <sodipodi:namedview
     id="namedview63"
     pagecolor="#505050"
     bordercolor="#eeeeee"
     borderopacity="1"
     inkscape:showpageshadow="0"
     inkscape:pageopacity="0"
     inkscape:pagecheckerboard="0"
     inkscape:deskcolor="#505050"
     inkscape:zoom="3.2399854"
     inkscape:cx="495.98989"
     inkscape:cy="447.37856"
     inkscape:window-width="3440"
     inkscape:window-height="1369"
     inkscape:window-x="2152"
     inkscape:window-y="1233"
     inkscape:window-maximized="1"
     inkscape:current-layer="svg63" />
  <defs
     id="defs10">
    <inkscape:path-effect
       effect="powerclip"
       id="path-effect242"
       is_visible="true"
       lpeversion="1"
       inverse="true"
       flatten="false"
       hide_clip="false"
       message="Use fill-rule evenodd on &lt;b&gt;fill and stroke&lt;/b&gt; dialog if no flatten result after convert clip to paths." />
    <inkscape:path-effect
       effect="powerclip"
       id="path-effect108"
       is_visible="true"
       lpeversion="1"
       inverse="true"
       flatten="false"
       hide_clip="false"
       message="Use fill-rule evenodd on &lt;b&gt;fill and stroke&lt;/b&gt; dialog if no flatten result after convert clip to paths." />
    <inkscape:path-effect
       effect="powerclip"
       id="path-effect104"
       is_visible="true"
       lpeversion="1"
       inverse="true"
       flatten="false"
       hide_clip="false"
       message="Use fill-rule evenodd on &lt;b&gt;fill and stroke&lt;/b&gt; dialog if no flatten result after convert clip to paths." />
    <inkscape:path-effect
       effect="powerclip"
       id="path-effect103"
       is_visible="true"
       lpeversion="1"
       inverse="true"
       flatten="false"
       hide_clip="false"
       message="Use fill-rule evenodd on &lt;b&gt;fill and stroke&lt;/b&gt; dialog if no flatten result after convert clip to paths." />
    <inkscape:path-effect
       effect="powerclip"
       id="path-effect102"
       is_visible="true"
       lpeversion="1"
       inverse="true"
       flatten="false"
       hide_clip="false"
       message="Use fill-rule evenodd on &lt;b&gt;fill and stroke&lt;/b&gt; dialog if no flatten result after convert clip to paths." />
    <inkscape:path-effect
       effect="powerclip"
       id="path-effect101"
       is_visible="true"
       lpeversion="1"
       inverse="true"
       flatten="false"
       hide_clip="false"
       message="Use fill-rule evenodd on &lt;b&gt;fill and stroke&lt;/b&gt; dialog if no flatten result after convert clip to paths." />
    <inkscape:path-effect
       effect="powerclip"
       id="path-effect100"
       is_visible="true"
       lpeversion="1"
       inverse="true"
       flatten="false"
       hide_clip="false"
       message="Use fill-rule evenodd on &lt;b&gt;fill and stroke&lt;/b&gt; dialog if no flatten result after convert clip to paths." />
    <inkscape:path-effect
       effect="powerclip"
       id="path-effect65"
       is_visible="true"
       lpeversion="1"
       inverse="true"
       flatten="false"
       hide_clip="false"
       message="Use fill-rule evenodd on &lt;b&gt;fill and stroke&lt;/b&gt; dialog if no flatten result after convert clip to paths." />
    <linearGradient
       id="Gradient1"
       gradientUnits="userSpaceOnUse"
       x1="1159.48"
       y1="1002.24"
       x2="1000.51"
       y2="955.919">
      <stop
         class="stop0"
         offset="0"
         stop-opacity="1"
         stop-color="rgb(128,164,199)"
         id="stop1" />
      <stop
         class="stop1"
         offset="1"
         stop-opacity="1"
         stop-color="rgb(237,236,227)"
         id="stop2" />
    </linearGradient>
    <linearGradient
       id="Gradient2"
       gradientUnits="userSpaceOnUse"
       x1="880.787"
       y1="975.744"
       x2="1045.28"
       y2="929.073">
      <stop
         class="stop0"
         offset="0"
         stop-opacity="1"
         stop-color="rgb(129,168,199)"
         id="stop3" />
      <stop
         class="stop1"
         offset="1"
         stop-opacity="1"
         stop-color="rgb(239,237,229)"
         id="stop4" />
    </linearGradient>
    <linearGradient
       id="Gradient3"
       gradientUnits="userSpaceOnUse"
       x1="1290.71"
       y1="909.42"
       x2="1118.83"
       y2="788.079">
      <stop
         class="stop0"
         offset="0"
         stop-opacity="1"
         stop-color="rgb(206,218,219)"
         id="stop5" />
      <stop
         class="stop1"
         offset="1"
         stop-opacity="1"
         stop-color="rgb(235,231,230)"
         id="stop6" />
    </linearGradient>
    <linearGradient
       id="Gradient4"
       gradientUnits="userSpaceOnUse"
       x1="743.103"
       y1="885.127"
       x2="1001.88"
       y2="779.282">
      <stop
         class="stop0"
         offset="0"
         stop-opacity="1"
         stop-color="rgb(150,195,214)"
         id="stop7" />
      <stop
         class="stop1"
         offset="1"
         stop-opacity="1"
         stop-color="rgb(240,233,228)"
         id="stop8" />
    </linearGradient>
    <linearGradient
       id="Gradient5"
       gradientUnits="userSpaceOnUse"
       x1="1299.34"
       y1="860.674"
       x2="1056.38"
       y2="791.347">
      <stop
         class="stop0"
         offset="0"
         stop-opacity="1"
         stop-color="rgb(148,186,209)"
         id="stop9" />
      <stop
         class="stop1"
         offset="1"
         stop-opacity="1"
         stop-color="rgb(238,234,228)"
         id="stop10" />
    </linearGradient>
    <filter
       id="mask-powermask-path-effect65_inverse"
       inkscape:label="filtermask-powermask-path-effect65"
       style="color-interpolation-filters:sRGB"
       height="100"
       width="100"
       x="-50"
       y="-50">
      <feColorMatrix
         id="mask-powermask-path-effect65_primitive1"
         values="1"
         type="saturate"
         result="fbSourceGraphic" />
      <feColorMatrix
         id="mask-powermask-path-effect65_primitive2"
         values="-1 0 0 0 1 0 -1 0 0 1 0 0 -1 0 1 0 0 0 1 0 "
         in="fbSourceGraphic" />
    </filter>
    <clipPath
       clipPathUnits="userSpaceOnUse"
       id="clipPath65">
      <path
         fill="#e6e9e6"
         d="m 716.202,1467.21 c 24.509,0.48 49.023,0.59 73.535,0.32 -1.257,21.91 -0.523,49.98 -0.463,72.44 l -72.437,0.3 c -1.194,-23.43 -0.625,-49.39 -0.635,-73.06 z"
         id="path65"
         style="display:none;stroke-width:1" />
      <path
         id="lpe_path-effect65"
         style="stroke-width:1"
         class="powerclip"
         d="M 684.32936,1435.1582 H 821.304 V 1572.06 H 684.32936 Z M 716.202,1467.21 c 0.01,23.67 -0.559,49.63 0.635,73.06 l 72.437,-0.3 c -0.06,-22.46 -0.794,-50.53 0.463,-72.44 -24.512,0.27 -49.026,0.16 -73.535,-0.32 z" />
    </clipPath>
    <clipPath
       clipPathUnits="userSpaceOnUse"
       id="clipPath100">
      <path
         fill="rgb(203,148,146)"
         d="m 1419.4,1038.58 c 5.24,1.02 9.03,3.5 9.69,9.14 -3.8,14.5 -42.64,74.1 -51.4,91.13 -1.07,2.08 -3.74,4.27 -5.64,5.69 -1.8,-0.32 -3.54,-0.93 -5.15,-1.79 -3.39,-1.79 -3.78,-3.41 -4.65,-6.48 0.48,-2.73 52.95,-92.27 57.15,-97.69 z"
         id="path100"
         style="display:none;fill:#ffffff;stroke-width:1" />
      <path
         id="lpe_path-effect100"
         style="fill:#ffffff;stroke-width:1"
         class="powerclip"
         d="m 1319.53,1015.1573 h 126.3714 v 147.4731 H 1319.53 Z m 99.87,23.4227 c -4.2,5.42 -56.67,94.96 -57.15,97.69 0.87,3.07 1.26,4.69 4.65,6.48 1.61,0.86 3.35,1.47 5.15,1.79 1.9,-1.42 4.57,-3.61 5.64,-5.69 8.76,-17.03 47.6,-76.63 51.4,-91.13 -0.66,-5.64 -4.45,-8.12 -9.69,-9.14 z" />
    </clipPath>
    <clipPath
       clipPathUnits="userSpaceOnUse"
       id="clipPath101">
      <path
         fill="rgb(152,119,164)"
         d="m 969.975,1299.12 c 15.458,-0.64 97.295,-2.1 107.275,0.67 4.18,6.02 1.42,9.53 -2.91,14.54 -10.61,1.82 -98.842,1.91 -103.828,-1.55 -2.167,-1.5 -3.008,-3.79 -3.182,-6.35 -0.221,-3.26 0.832,-4.86 2.645,-7.31 z"
         id="path101"
         style="display:none;fill:#ffffff;stroke-width:1" />
      <path
         id="lpe_path-effect101"
         style="fill:#ffffff;stroke-width:1"
         class="powerclip"
         d="m 947.99003,1249.8828 h 149.98807 v 81.5727 H 947.99003 Z M 969.975,1299.12 c -1.813,2.45 -2.866,4.05 -2.645,7.31 0.174,2.56 1.015,4.85 3.182,6.35 4.986,3.46 93.218,3.37 103.828,1.55 4.33,-5.01 7.09,-8.52 2.91,-14.54 -9.98,-2.77 -91.817,-1.31 -107.275,-0.67 z" />
    </clipPath>
    <clipPath
       clipPathUnits="userSpaceOnUse"
       id="clipPath102">
      <path
         fill="rgb(133,168,197)"
         d="m 626.373,1040.81 c 1.733,0.05 6.142,0.69 6.837,2.09 6.126,12.3 55.437,87.8 55.47,93.91 -1.175,3.42 -2.769,4.33 -5.502,6.7 -2.499,0.44 -6.404,0.64 -8.029,-1.81 -18.533,-27.91 -35.965,-57.19 -52.287,-86.48 -3.998,-7.17 -2.041,-9.94 3.511,-14.41 z"
         id="path102"
         style="display:none;fill:#ffffff;stroke-width:1" />
      <path
         id="lpe_path-effect102"
         style="fill:#ffffff;stroke-width:1"
         class="powerclip"
         d="M 603.55373,1015.9841 H 728.778 v 146.4795 H 603.55373 Z M 626.373,1040.81 c -5.552,4.47 -7.509,7.24 -3.511,14.41 16.322,29.29 33.754,58.57 52.287,86.48 1.625,2.45 5.53,2.25 8.029,1.81 2.733,-2.37 4.327,-3.28 5.502,-6.7 -0.033,-6.11 -49.344,-81.61 -55.47,-93.91 -0.695,-1.4 -5.104,-2.04 -6.837,-2.09 z" />
    </clipPath>
    <clipPath
       clipPathUnits="userSpaceOnUse"
       id="clipPath103">
      <path
         fill="rgb(152,119,164)"
         d="m 684.93,615.899 c 4.78,0.964 8.603,2.033 10.666,6.785 -0.34,2.838 -2.1,5.932 -3.679,8.333 -13.73,20.879 -27.957,41.418 -41.182,62.635 -4.345,6.971 -8.695,14.453 -13.943,20.741 -3.522,0.917 -5.685,-0.123 -8.167,-2.426 -0.813,-2.419 -1.43,-3.941 -1.245,-6.489 0.219,-3.04 3.006,-10.407 4.475,-12.644 9.565,-14.561 42.433,-68.6 53.075,-76.935 z"
         id="path103"
         style="display:none;fill:#ffffff;stroke-width:1" />
      <path
         id="lpe_path-effect103"
         style="fill:#ffffff;stroke-width:1"
         class="powerclip"
         d="M 609.51175,599.96852 H 735.707 V 748.606 H 609.51175 Z M 684.93,615.899 c -10.642,8.335 -43.51,62.374 -53.075,76.935 -1.469,2.237 -4.256,9.604 -4.475,12.644 -0.185,2.548 0.432,4.07 1.245,6.489 2.482,2.303 4.645,3.343 8.167,2.426 5.248,-6.288 9.598,-13.77 13.943,-20.741 13.225,-21.217 27.452,-41.756 41.182,-62.635 1.579,-2.401 3.339,-5.495 3.679,-8.333 -2.063,-4.752 -5.886,-5.821 -10.666,-6.785 z" />
    </clipPath>
    <clipPath
       clipPathUnits="userSpaceOnUse"
       id="clipPath104">
      <path
         fill="rgb(229,162,90)"
         d="m 972.687,471.138 c 31.003,-1.657 65.963,0.358 97.183,0.012 5.61,-0.063 15.33,10.997 3.89,15.53 -12.93,-0.292 -99.502,1.631 -104.909,-1.803 -3.671,-5.884 -0.395,-9.382 3.836,-13.738 z"
         id="path104"
         style="display:none;fill:#ffffff;stroke-width:1" />
      <path
         id="lpe_path-effect104"
         style="fill:#ffffff;stroke-width:1"
         class="powerclip"
         d="m 948.29223,454.54486 h 149.24897 v 88.06849 H 948.29223 Z M 972.687,471.138 v 0.001 c -4.231,4.356 -7.507,7.854 -3.836,13.738 5.407,3.434 91.979,1.511 104.909,1.803 11.44,-4.533 1.72,-15.593 -3.89,-15.53 -31.22,0.346 -66.18,-1.669 -97.183,-0.012 z" />
    </clipPath>
    <clipPath
       clipPathUnits="userSpaceOnUse"
       id="clipPath108">
      <path
         fill="rgb(203,148,146)"
         d="m 1358.84,616.789 1.36,0.043 c 2.56,0.065 6.14,-0.085 7.87,2.354 17.92,25.326 35.29,51.741 51.64,78.129 4.32,6.982 0.76,13.586 -4.89,18.083 -0.6,-0.043 -3.8,-0.332 -4.22,-1.151 -15.76,-30.593 -41.58,-60.499 -57.29,-90.471 0.61,-3.284 2.93,-4.658 5.53,-6.987 z"
         id="path108"
         style="display:none;fill:#ffffff;stroke-width:1" />
      <path
         id="lpe_path-effect108"
         style="fill:#ffffff;stroke-width:1"
         class="powerclip"
         d="m 1312.19,599.08172 h 125.08 v 148.88723 h -125.08 z m 46.65,17.70728 c -2.6,2.329 -4.92,3.703 -5.53,6.987 15.71,29.972 41.53,59.878 57.29,90.471 0.42,0.819 3.62,1.108 4.22,1.151 5.65,-4.497 9.21,-11.101 4.89,-18.083 -16.35,-26.388 -33.72,-52.803 -51.64,-78.129 -1.73,-2.439 -5.31,-2.289 -7.87,-2.354 z" />
    </clipPath>
    <clipPath
       clipPathUnits="userSpaceOnUse"
       id="clipPath228">
      <use
         x="0"
         y="0"
         xlink:href="#g227"
         id="use228" />
    </clipPath>
    <clipPath
       clipPathUnits="userSpaceOnUse"
       id="clipPath229">
      <g
         id="g242"
         clip-path="url(#clipPath228)"
         style="display:none">
        <g
           inkscape:label="Clip"
           id="g241">
          <path
             d="m 1022.9219,989.88672 c -9.37,8.72698 -18.4807,17.74348 -27.30471,27.02348 -1.201,36.2099 0.39659,72.9817 -0.19141,109.2617 -0.102,6.3 -0.0632,13.717 0.33984,19.957 5.51498,0.4 10.82328,0.8497 16.36328,0.9297 l -0.168,-81.5703 c -0.04,-12.82 -0.6209,-30.408 0.039,-42.918 4.44,-4.69 5.46,-5.8105 11,-9.4805 4.75,3.65 6.9917,5.2394 11.0117,9.8594 1,41.0199 -0.8103,83.4321 0.4297,124.0821 5.43,-0.19 10.9777,-0.2422 16.3477,-0.9922 0.09,-40.09 1.5015,-89.8309 -0.3985,-129.0508 -5.88,-7.26 -19.8887,-21.13559 -27.4687,-27.10158 z"
             style="fill:#ffffff"
             id="path229" />
          <path
             d="m 1233.75,742.56641 c -8.83,9.00998 -20.3591,21.40061 -29.5391,29.55859 -8.8199,0.025 -18.4101,-0.14519 -27.1601,0.13281 -10.42,7.80199 -19.2011,15.84993 -24.8711,27.75391 -11.59,0.099 -27.1389,-0.1585 -38.3789,0.6875 -6.2,5.98499 -12.45,11.90845 -18.75,17.77344 0.03,20.12396 -0.8213,49.4551 0.7187,68.91406 8.63,9.64598 32.4807,33.62705 42.3907,41.70703 h 142.7812 c 0.57,-5.26999 1.1495,-9.90848 1.2695,-15.23047 -42.1799,-0.027 -88.89,0.91969 -130.75,-0.44531 -1.91,-0.027 -6.4112,-0.0318 -7.7812,-1.21485 -9.99,-8.64198 -24.571,-20.91786 -32.2109,-31.46484 -0.36,-18.28996 -0.489,-36.58594 -0.379,-54.87891 3.71,-3.63499 8.2819,-8.38235 12.1719,-11.65234 9.47,0.087 18.9385,0.11313 28.3985,0.0781 2.46,17.49796 10.8217,22.22455 24.0117,34.64453 l 105.4179,0.22656 c -0.32,-5.02399 -0.5517,-10.16373 -1.2617,-15.13672 -29.0099,-0.102 -69.8072,0.90678 -97.8672,-0.82422 -5.92,-4.36499 -7.9228,-6.21295 -12.8828,-11.71094 -0.61,-7.16198 -0.697,-11.02485 -0.457,-18.21484 3.78,-5.46899 10.1475,-11.56595 14.9375,-16.46094 8.9,-0.051 21.6797,0.27013 30.1797,-1.04687 10.25,-9.69698 21.8728,-21.56764 32.3828,-30.51563 -3.02,-3.91699 -7.9211,-11.17369 -12.3711,-12.67968 z"
             style="fill:#ffffff"
             id="path230" />
          <path
             d="m 1095.9219,646.34375 c 0.13,21.41096 -1.501,53.67854 1.539,74.6875 0.63,4.32899 9.9374,13.65432 13.2774,17.19531 -12.54,12.95998 -37.4579,35.91059 -47.5078,48.60156 -0.83,38.27593 -0.091,79.21524 0.039,117.66016 7.97,10.02398 57.2804,58.92395 67.3203,66.33594 5.63,-0.35 21.6521,-1.52715 26.3321,0.21484 0.4087,-0.0672 0.892,-0.10758 1.4297,-0.125 0.1794,-0.006 0.4499,0.0554 0.6406,0.0547 1.7275,-0.0108 3.7089,0.14626 5.7226,0.48047 0.7886,0.12967 1.4564,0.27485 2.1641,0.4414 0.3896,0.0916 0.8154,0.16502 1.1641,0.26563 0.136,0.0392 0.2386,0.0768 0.3672,0.11719 0.8071,0.2535 1.504,0.52376 1.9179,0.8125 4.24,-3.405 28.571,-2.16144 34.711,-2.14844 l 65.3125,0.0937 c 1.63,-5.62799 2.639,-11.10495 3.789,-16.83594 -45.7899,-1.194 -93.0121,0.83875 -139.082,-0.28125 -11.77,-9.75498 -46.2283,-44.91124 -55.9883,-55.82422 -1.69,-29.44094 -0.2497,-74.73406 -0.1797,-105.375 14.41,-15.41197 30.829,-30.38806 45.6289,-45.45703 7.78,-7.92298 19.8014,-18.40752 25.4414,-27.5625 0.75,-13.34797 0.077,-38.04009 -0.3828,-51.41406 -5.03,-3.01399 -10.597,-5.35944 -15.957,-7.77344 l -0.4102,55.54688 c -3.55,3.93999 -7.3118,7.3601 -11.1718,10.99609 -3.12,-2.59999 -6.54,-6.17132 -9.5,-9.07031 -1.4,-20.38796 -0.1289,-46.38083 -0.6289,-67.67578 z"
             style="fill:#ffffff"
             id="path231" />
          <path
             d="m 951.01172,647.69531 -16.0586,2.98828 0.043,66.02735 c -3.79399,4.54399 -5.85238,6.63341 -10.10937,10.6914 -4.51199,-4.10199 -8.12442,-7.24788 -12.06641,-11.92187 0.011,-17.84597 0.33663,-36.71551 -0.10937,-54.48047 -5.14599,2.352 -10.62008,4.97869 -15.78907,7.17969 -0.043,16.55696 -0.61912,36.32312 0.0469,52.62109 16.30097,21.75696 53.93266,50.83054 71.01562,71.9375 0.321,22.49196 0.48057,44.98651 0.47657,67.48047 0.014,11.96898 0.40262,27.4659 -0.48438,39.17187 -12.08897,13.80198 -40.7869,43.49825 -54.79687,54.69922 l -140.98438,0.0195 c 1.339,5.49699 2.66601,11.46573 4.125,16.88672 32.86794,0.036 68.12032,-0.59396 100.78125,0.20703 2.09625,-0.45874 5.23247,-0.77507 8.88672,-0.98046 3.65427,-0.20578 7.8266,-0.30138 12,-0.32032 8.34681,-0.0379 16.69285,0.23207 20.88281,0.53907 21.32196,-18.09897 44.2207,-41.8857 64.22266,-61.97266 0.991,-13.13297 1.10406,-27.67956 0.78906,-40.89453 -0.631,-26.46295 1.19272,-54.3684 -0.48828,-80.65235 -9.62698,-12.77797 -35.1904,-35.00518 -48.10937,-49.16015 6.28198,-6.52299 10.91332,-11.19458 15.69531,-18.97656 0.19,-23.69696 0.20225,-47.39389 0.0312,-71.08985 z"
             style="fill:#ffffff"
             id="path232" />
          <path
             d="m 814.53516,740.64453 c -4.93999,5.14299 -7.65198,8.04539 -11.91797,13.73438 9.57098,9.93098 23.30302,24.17014 34,32.57812 9.31498,-0.002 18.87898,-0.12409 28.16797,0.004 5.56599,5.35199 10.38966,9.93348 15.47265,15.73047 -0.003,6.38798 0.12688,12.9497 -0.32812,19.30468 -4.90299,4.63899 -7.34764,6.99754 -12.89063,10.89453 -24.16895,2.347 -71.52052,1.04851 -97.85547,1.0625 l -2.38281,15.07813 c 34.72093,0.156 69.44313,0.13359 104.16406,-0.0664 13.73398,-7.33298 23.78069,-18.73962 24.67969,-34.55859 9.29198,-0.245 18.58393,-0.32881 27.87891,-0.25781 l 12.40625,11.7539 c 0.222,18.89397 0.31334,37.78864 0.27734,56.6836 -10.22898,9.94198 -21.64655,21.50989 -32.26953,30.79687 l -9.6875,0.40625 c -40.05592,0.024 -89.9107,-1.41828 -129.26563,0.13672 l 1.50391,15.03906 92.52734,0.0664 c 15.74997,0.002 35.5021,0.44775 51.03907,-0.28125 9.11598,-7.56998 34.32457,-31.25721 41.72656,-40.49219 0.389,-21.18096 0.66337,-48.33645 -0.39063,-69.4414 -6.93998,-7.27899 -12.28935,-12.25983 -20.02734,-18.75782 -10.30398,-0.078 -24.52964,0.23413 -34.51562,-0.67187 -5.93499,-8.76798 -16.06568,-19.82014 -24.47266,-26.32813 -9.66098,-0.83299 -17.50146,-0.73134 -27.14844,-0.65234 -12.94497,-10.19298 -21.16642,-23.69173 -30.6914,-31.76172 z"
             style="fill:#ffffff"
             id="path233" />
          <path
             d="m 1014.5117,635.91406 c -5.12,0.117 -10.4607,0.59875 -15.59373,0.96875 5.13303,-0.37 10.47373,-0.85175 15.59373,-0.96875 z m -12.7305,140.05078 c -1.5699,5.28199 -0.122,40.48925 -0.582,48.57422 -1.12,19.69294 1.0303,42.52659 -0.4297,62.26953 -0.31,-4.79198 0.3213,-17.65182 -1.51169,-20.50781 -0.352,21.45396 0.95129,48.05254 -0.17969,68.5625 -23.27795,29.76894 -53.83057,52.49871 -78.01953,80.59762 -0.031,36.56 -0.4809,73.9576 -0.004,110.4375 l 16.65625,6.7032 c -0.258,-33.13 -1.18213,-76.8915 -0.0781,-109.4414 0.162,-0.26 0.32128,-0.5196 0.48828,-0.7696 14.11298,-21.5799 71.61948,-64.84023 76.01948,-83.82419 3.33,-14.35098 0.7303,-32.54841 0.8203,-47.35938 -6.3899,-12.42296 2.5806,-65.4239 -6.1093,-72.54687 -2.27,1.99999 -2.2718,2.70831 -4.7618,3.07031 -3.3899,-6.31998 -2.1786,-35.99266 -2.3086,-45.76563 z"
             style="fill:#ffffff"
             id="path234" />
          <path
             d="m 1014.5117,635.91406 c -5.12,0.117 -10.4607,0.59875 -15.59373,0.96875 l 0.33984,229.41797 c 1.83299,2.856 1.20169,15.71582 1.51169,20.50781 1.46,-19.74296 -0.6903,-42.57657 0.4297,-62.26953 0.46,-8.08498 -0.9879,-43.29223 0.582,-48.57422 0.13,9.77298 -1.0813,39.44564 2.3086,45.76563 2.49,-0.362 2.4918,-1.07032 4.7618,-3.07031 8.6899,7.12298 -0.2806,60.1239 6.1093,72.54687 l 0.02,-159.10937 c -0.01,-31.74094 0.4112,-64.55266 -0.4688,-96.1836 z"
             style="fill:#ffffff"
             id="path235" />
          <path
             d="m 1045.2891,828.40234 c -2.63,0.32075 -4.5195,2.05161 -5.8828,4.58985 -0.6817,1.26911 -1.2313,2.73934 -1.6758,4.33593 -0.4445,1.5966 -0.7866,3.32093 -1.0469,5.09375 -1.0414,7.0913 -0.8202,14.98717 -1.0352,18.84766 -0.2687,-0.29412 -0.4801,-0.74611 -0.6484,-1.32422 -0.1683,-0.5781 -0.2937,-1.28297 -0.3828,-2.07422 -0.1783,-1.58249 -0.2181,-3.52126 -0.207,-5.53125 0.022,-4.01998 0.2517,-8.32675 0.012,-10.65625 -0.23,3.09999 -0.5287,8.00138 -0.6328,12.85547 -0.052,2.42705 -0.054,4.84431 0.023,7.01563 0.078,2.17131 0.2353,4.09803 0.5078,5.55078 l 1.168,0.76172 2.6211,-1.55469 c 0.5812,0.80225 1.0408,1.89986 1.3906,3.21875 0.3498,1.31889 0.5899,2.85905 0.7266,4.55078 0.5464,6.76695 -0.5384,15.94143 -2.6719,22.92188 -0.5334,1.74511 -1.1339,3.35495 -1.7891,4.7539 -0.6552,1.39896 -1.3662,2.5871 -2.125,3.4961 -0.44,-1.18 -0.9508,-2.43001 -1.3008,-3.625 -0.11,12.28297 -2.7214,30.20883 1.5586,41.63281 4.09,10.89698 62.3913,64.71798 75.5313,79.41798 1.81,30.9399 0.2895,77.8404 0.2695,109.8203 5.86,-1.9 11.1489,-3.9788 16.8789,-6.2187 -1.25,-36.29 -0.097,-74.1209 -0.8867,-110.8008 -13.46,-14.25 -74.1314,-69.14437 -76.9414,-80.94534 -2.13,-8.96999 -0.7405,-20.79124 -0.7305,-30.07422 0.03,-20.69996 0.3789,-41.44186 -0.1211,-62.13282 l -0.2187,-0.84765 c -1.005,-4.07774 -0.7344,-7.07501 -1.3711,-10.0586 -0.2123,-0.99452 -0.5245,-1.98903 -1.0195,-3.01953 z"
             style="fill:#ffffff"
             id="path236" />
          <path
             d="m 1032.3789,636.20703 c -1.3,86.89983 -0.4091,178.30305 -0.039,265.42188 0.35,1.19499 0.8608,2.445 1.3008,3.625 6.07,-7.27199 9.1188,-32.52342 4.4688,-38.94141 l -2.6211,1.55469 -1.168,-0.76172 c -1.09,-5.81099 -0.3584,-19.22189 0.1016,-25.42188 0.48,4.65899 -0.9235,17.23295 1.2265,19.58594 0.43,-7.72098 -0.8793,-31.58419 9.6407,-32.86719 1.98,4.122 1.0506,7.64114 2.3906,13.07813 l 0.2187,0.84765 c 0.67,-41.08591 0.9611,-82.17861 0.8711,-123.26953 0.05,-26.32494 0.7105,-55.94255 -0.2695,-81.9375 -5.25,-0.301 -10.9111,-0.73006 -16.1211,-0.91406 z"
             style="fill:#ffffff"
             id="path237" />
          <path
             d="m 897.98828,969.90234 c -8.34686,0.0379 -16.69423,0.38329 -20.88672,1.30078 -0.058,8.31299 -17.78423,22.31117 -23.82422,27.66016 -17.52996,1.58602 -45.73391,0.40544 -64.42187,0.64844 l 7.27734,16.70698 c 18.79496,0.78 42.64973,0.1594 61.55469,-0.1406 10.90698,-8.71 23.82415,-21.18834 33.82812,-31.02732 l -0.0859,-14.01953 c 8.07498,0.03 19.71242,0.42215 27.4414,-0.58984 -4.18999,-0.307 -12.53595,-0.57694 -20.88281,-0.53907 z"
             style="fill:#ffffff"
             id="path238" />
          <path
             d="m 1158.3516,970.91406 c -0.5377,0.0174 -1.021,0.0578 -1.4297,0.125 l 0.1562,14.22266 c 8.28,8.39898 24.7808,23.87688 34.0508,31.04688 20.06,-0.16 40.1215,-0.2202 60.1914,-0.1602 l 7.418,-16.47262 c -20.12,-0.95 -42.5282,-0.41512 -62.8281,-0.32812 -6.77,-5.01999 -22.4221,-18.55674 -25.5821,-26.26172 -1.8112,-1.2635 -8.213,-2.29378 -11.9765,-2.17188 z"
             style="fill:#ffffff"
             id="path239" />
          <path
             d="m 1071.9688,1032.1484 c -0.9,17.26 -0.3693,36.7207 -0.1993,54.1407 0.18,18.9099 -0.1107,38.6622 0.4493,57.4922 l 14.582,-3.961 2.0078,-1.3398 c 0.96,-6.48 0.3725,-26.1815 0.3125,-33.6914 l -0.1406,-57.6485 c -3.92,-5.32 -10.8818,-12.4222 -17.0117,-14.9922 z"
             style="fill:#ffffff"
             id="path240" />
          <path
             d="m 973.71484,1032.8984 c -6.10699,4.95 -10.40338,8.2016 -15.60937,14.1016 -0.051,13.52 -1.69678,83.3509 0.82422,91.4609 l 2.27734,1.3282 13.72656,2.7812 c 0.013,-11 1.04225,-107.5119 -1.21875,-109.6719 z"
             style="fill:#ffffff"
             id="path241" />
        </g>
      </g>
      <path
         id="lpe_path-effect242"
         class="powerclip"
         d="m 739.66228,607.1033 h 568.68382 v 568.8868 H 739.66228 Z m 283.25962,382.78342 c -9.37,8.72698 -18.4807,17.74348 -27.30471,27.02348 -1.201,36.2099 0.39659,72.9817 -0.19141,109.2617 -0.102,6.3 -0.0632,13.717 0.33984,19.957 5.51498,0.4 10.82328,0.8497 16.36328,0.9297 l -0.168,-81.5703 c -0.04,-12.82 -0.6209,-30.408 0.039,-42.918 4.44,-4.69 5.46,-5.8105 11,-9.4805 4.75,3.65 6.9917,5.2394 11.0117,9.8594 1,41.0199 -0.8103,83.4321 0.4297,124.0821 5.43,-0.19 10.9777,-0.2422 16.3477,-0.9922 0.09,-40.09 1.5015,-89.8309 -0.3985,-129.0508 -5.88,-7.26 -19.8887,-21.13559 -27.4687,-27.10158 z M 1233.75,742.56641 c -8.83,9.00998 -20.3591,21.40061 -29.5391,29.55859 -8.8199,0.025 -18.4101,-0.14519 -27.1601,0.13281 -10.42,7.80199 -19.2011,15.84993 -24.8711,27.75391 -11.59,0.099 -27.1389,-0.1585 -38.3789,0.6875 -6.2,5.98499 -12.45,11.90845 -18.75,17.77344 0.03,20.12396 -0.8213,49.4551 0.7187,68.91406 8.63,9.64598 32.4807,33.62705 42.3907,41.70703 h 142.7812 c 0.57,-5.26999 1.1495,-9.90848 1.2695,-15.23047 -42.1799,-0.027 -88.89,0.91969 -130.75,-0.44531 -1.91,-0.027 -6.4112,-0.0318 -7.7812,-1.21485 -9.99,-8.64198 -24.571,-20.91786 -32.2109,-31.46484 -0.36,-18.28996 -0.489,-36.58594 -0.379,-54.87891 3.71,-3.63499 8.2819,-8.38235 12.1719,-11.65234 9.47,0.087 18.9385,0.11313 28.3985,0.0781 2.46,17.49796 10.8217,22.22455 24.0117,34.64453 l 105.4179,0.22656 c -0.32,-5.02399 -0.5517,-10.16373 -1.2617,-15.13672 -29.0099,-0.102 -69.8072,0.90678 -97.8672,-0.82422 -5.92,-4.36499 -7.9228,-6.21295 -12.8828,-11.71094 -0.61,-7.16198 -0.697,-11.02485 -0.457,-18.21484 3.78,-5.46899 10.1475,-11.56595 14.9375,-16.46094 8.9,-0.051 21.6797,0.27013 30.1797,-1.04687 10.25,-9.69698 21.8728,-21.56764 32.3828,-30.51563 -3.02,-3.91699 -7.9211,-11.17369 -12.3711,-12.67968 z m -137.8281,-96.22266 c 0.13,21.41096 -1.501,53.67854 1.539,74.6875 0.63,4.32899 9.9374,13.65432 13.2774,17.19531 -12.54,12.95998 -37.4579,35.91059 -47.5078,48.60156 -0.83,38.27593 -0.091,79.21524 0.039,117.66016 7.97,10.02398 57.2804,58.92395 67.3203,66.33594 5.63,-0.35 21.6521,-1.52715 26.3321,0.21484 0.4087,-0.0672 0.892,-0.10758 1.4297,-0.125 0.1794,-0.006 0.4499,0.0554 0.6406,0.0547 1.7275,-0.0108 3.7089,0.14626 5.7226,0.48047 0.7886,0.12967 1.4564,0.27485 2.1641,0.4414 0.3896,0.0916 0.8154,0.16502 1.1641,0.26563 0.136,0.0392 0.2386,0.0768 0.3672,0.11719 0.8071,0.2535 1.504,0.52376 1.9179,0.8125 4.24,-3.405 28.571,-2.16144 34.711,-2.14844 l 65.3125,0.0937 c 1.63,-5.62799 2.639,-11.10495 3.789,-16.83594 -45.7899,-1.194 -93.0121,0.83875 -139.082,-0.28125 -11.77,-9.75498 -46.2283,-44.91124 -55.9883,-55.82422 -1.69,-29.44094 -0.2497,-74.73406 -0.1797,-105.375 14.41,-15.41197 30.829,-30.38806 45.6289,-45.45703 7.78,-7.92298 19.8014,-18.40752 25.4414,-27.5625 0.75,-13.34797 0.077,-38.04009 -0.3828,-51.41406 -5.03,-3.01399 -10.597,-5.35944 -15.957,-7.77344 l -0.4102,55.54688 c -3.55,3.93999 -7.3118,7.3601 -11.1718,10.99609 -3.12,-2.59999 -6.54,-6.17132 -9.5,-9.07031 -1.4,-20.38796 -0.1289,-46.38083 -0.6289,-67.67578 z m -144.91018,1.35156 -16.0586,2.98828 0.043,66.02735 c -3.79399,4.54399 -5.85238,6.63341 -10.10937,10.6914 -4.51199,-4.10199 -8.12442,-7.24788 -12.06641,-11.92187 0.011,-17.84597 0.33663,-36.71551 -0.10937,-54.48047 -5.14599,2.352 -10.62008,4.97869 -15.78907,7.17969 -0.043,16.55696 -0.61912,36.32312 0.0469,52.62109 16.30097,21.75696 53.93266,50.83054 71.01562,71.9375 0.321,22.49196 0.48057,44.98651 0.47657,67.48047 0.014,11.96898 0.40262,27.4659 -0.48438,39.17187 -12.08897,13.80198 -40.7869,43.49825 -54.79687,54.69922 l -140.98438,0.0195 c 1.339,5.49699 2.66601,11.46573 4.125,16.88672 32.86794,0.036 68.12032,-0.59396 100.78125,0.20703 2.09625,-0.45874 5.23247,-0.77507 8.88672,-0.98046 3.65427,-0.20578 7.8266,-0.30138 12,-0.32032 8.34681,-0.0379 16.69285,0.23207 20.88281,0.53907 21.32196,-18.09897 44.2207,-41.8857 64.22266,-61.97266 0.991,-13.13297 1.10406,-27.67956 0.78906,-40.89453 -0.631,-26.46295 1.19272,-54.3684 -0.48828,-80.65235 -9.62698,-12.77797 -35.1904,-35.00518 -48.10937,-49.16015 6.28198,-6.52299 10.91332,-11.19458 15.69531,-18.97656 0.19,-23.69696 0.20225,-47.39389 0.0312,-71.08985 z m -136.47656,92.94922 c -4.93999,5.14299 -7.65198,8.04539 -11.91797,13.73438 9.57098,9.93098 23.30302,24.17014 34,32.57812 9.31498,-0.002 18.87898,-0.12409 28.16797,0.004 5.56599,5.35199 10.38966,9.93348 15.47265,15.73047 -0.003,6.38798 0.12688,12.9497 -0.32812,19.30468 -4.90299,4.63899 -7.34764,6.99754 -12.89063,10.89453 -24.16895,2.347 -71.52052,1.04851 -97.85547,1.0625 l -2.38281,15.07813 c 34.72093,0.156 69.44313,0.13359 104.16406,-0.0664 13.73398,-7.33298 23.78069,-18.73962 24.67969,-34.55859 9.29198,-0.245 18.58393,-0.32881 27.87891,-0.25781 l 12.40625,11.7539 c 0.222,18.89397 0.31334,37.78864 0.27734,56.6836 -10.22898,9.94198 -21.64655,21.50989 -32.26953,30.79687 l -9.6875,0.40625 c -40.05592,0.024 -89.9107,-1.41828 -129.26563,0.13672 l 1.50391,15.03906 92.52734,0.0664 c 15.74997,0.002 35.5021,0.44775 51.03907,-0.28125 9.11598,-7.56998 34.32457,-31.25721 41.72656,-40.49219 0.389,-21.18096 0.66337,-48.33645 -0.39063,-69.4414 -6.93998,-7.27899 -12.28935,-12.25983 -20.02734,-18.75782 -10.30398,-0.078 -24.52964,0.23413 -34.51562,-0.67187 -5.93499,-8.76798 -16.06568,-19.82014 -24.47266,-26.32813 -9.66098,-0.83299 -17.50146,-0.73134 -27.14844,-0.65234 -12.94497,-10.19298 -21.16642,-23.69173 -30.6914,-31.76172 z M 1014.5117,635.91406 c -5.12,0.117 -10.4607,0.59875 -15.59373,0.96875 5.13303,-0.37 10.47373,-0.85175 15.59373,-0.96875 z m -12.7305,140.05078 c -1.5699,5.28199 -0.122,40.48925 -0.582,48.57422 -1.12,19.69294 1.0303,42.52659 -0.4297,62.26953 -0.31,-4.79198 0.3213,-17.65182 -1.51169,-20.50781 -0.352,21.45396 0.95129,48.05254 -0.17969,68.5625 -23.27795,29.76894 -53.83057,52.49871 -78.01953,80.59762 -0.031,36.56 -0.4809,73.9576 -0.004,110.4375 l 16.65625,6.7032 c -0.258,-33.13 -1.18213,-76.8915 -0.0781,-109.4414 0.162,-0.26 0.32128,-0.5196 0.48828,-0.7696 14.11298,-21.5799 71.61948,-64.84023 76.01948,-83.82419 3.33,-14.35098 0.7303,-32.54841 0.8203,-47.35938 -6.3899,-12.42296 2.5806,-65.4239 -6.1093,-72.54687 -2.27,1.99999 -2.2718,2.70831 -4.7618,3.07031 -3.3899,-6.31998 -2.1786,-35.99266 -2.3086,-45.76563 z m 12.7305,-140.05078 c -5.12,0.117 -10.4607,0.59875 -15.59373,0.96875 l 0.33984,229.41797 c 1.83299,2.856 1.20169,15.71582 1.51169,20.50781 1.46,-19.74296 -0.6903,-42.57657 0.4297,-62.26953 0.46,-8.08498 -0.9879,-43.29223 0.582,-48.57422 0.13,9.77298 -1.0813,39.44564 2.3086,45.76563 2.49,-0.362 2.4918,-1.07032 4.7618,-3.07031 8.6899,7.12298 -0.2806,60.1239 6.1093,72.54687 l 0.02,-159.10937 c -0.01,-31.74094 0.4112,-64.55266 -0.4688,-96.1836 z m 30.7774,192.48828 c -2.63,0.32075 -4.5195,2.05161 -5.8828,4.58985 -0.6817,1.26911 -1.2313,2.73934 -1.6758,4.33593 -0.4445,1.5966 -0.7866,3.32093 -1.0469,5.09375 -1.0414,7.0913 -0.8202,14.98717 -1.0352,18.84766 -0.2687,-0.29412 -0.4801,-0.74611 -0.6484,-1.32422 -0.1683,-0.5781 -0.2937,-1.28297 -0.3828,-2.07422 -0.1783,-1.58249 -0.2181,-3.52126 -0.207,-5.53125 0.022,-4.01998 0.2517,-8.32675 0.012,-10.65625 -0.23,3.09999 -0.5287,8.00138 -0.6328,12.85547 -0.052,2.42705 -0.054,4.84431 0.023,7.01563 0.078,2.17131 0.2353,4.09803 0.5078,5.55078 l 1.168,0.76172 2.6211,-1.55469 c 0.5812,0.80225 1.0408,1.89986 1.3906,3.21875 0.3498,1.31889 0.5899,2.85905 0.7266,4.55078 0.5464,6.76695 -0.5384,15.94143 -2.6719,22.92188 -0.5334,1.74511 -1.1339,3.35495 -1.7891,4.7539 -0.6552,1.39896 -1.3662,2.5871 -2.125,3.4961 -0.44,-1.18 -0.9508,-2.43001 -1.3008,-3.625 -0.11,12.28297 -2.7214,30.20883 1.5586,41.63281 4.09,10.89698 62.3913,64.71798 75.5313,79.41798 1.81,30.9399 0.2895,77.8404 0.2695,109.8203 5.86,-1.9 11.1489,-3.9788 16.8789,-6.2187 -1.25,-36.29 -0.097,-74.1209 -0.8867,-110.8008 -13.46,-14.25 -74.1314,-69.14437 -76.9414,-80.94534 -2.13,-8.96999 -0.7405,-20.79124 -0.7305,-30.07422 0.03,-20.69996 0.3789,-41.44186 -0.1211,-62.13282 l -0.2187,-0.84765 c -1.005,-4.07774 -0.7344,-7.07501 -1.3711,-10.0586 -0.2123,-0.99452 -0.5245,-1.98903 -1.0195,-3.01953 z m -12.9102,-192.19531 c -1.3,86.89983 -0.4091,178.30305 -0.039,265.42188 0.35,1.19499 0.8608,2.445 1.3008,3.625 6.07,-7.27199 9.1188,-32.52342 4.4688,-38.94141 l -2.6211,1.55469 -1.168,-0.76172 c -1.09,-5.81099 -0.3584,-19.22189 0.1016,-25.42188 0.48,4.65899 -0.9235,17.23295 1.2265,19.58594 0.43,-7.72098 -0.8793,-31.58419 9.6407,-32.86719 1.98,4.122 1.0506,7.64114 2.3906,13.07813 l 0.2187,0.84765 c 0.67,-41.08591 0.9611,-82.17861 0.8711,-123.26953 0.05,-26.32494 0.7105,-55.94255 -0.2695,-81.9375 -5.25,-0.301 -10.9111,-0.73006 -16.1211,-0.91406 z M 897.98828,969.90234 c -8.34686,0.0379 -16.69423,0.38329 -20.88672,1.30078 -0.058,8.31299 -17.78423,22.31117 -23.82422,27.66016 -17.52996,1.58602 -45.73391,0.40544 -64.42187,0.64844 l 7.27734,16.70698 c 18.79496,0.78 42.64973,0.1594 61.55469,-0.1406 10.90698,-8.71 23.82415,-21.18834 33.82812,-31.02732 l -0.0859,-14.01953 c 8.07498,0.03 19.71242,0.42215 27.4414,-0.58984 -4.18999,-0.307 -12.53595,-0.57694 -20.88281,-0.53907 z m 260.36332,1.01172 c -0.5377,0.0174 -1.021,0.0578 -1.4297,0.125 l 0.1562,14.22266 c 8.28,8.39898 24.7808,23.87688 34.0508,31.04688 20.06,-0.16 40.1215,-0.2202 60.1914,-0.1602 l 7.418,-16.47262 c -20.12,-0.95 -42.5282,-0.41512 -62.8281,-0.32812 -6.77,-5.01999 -22.4221,-18.55674 -25.5821,-26.26172 -1.8112,-1.2635 -8.213,-2.29378 -11.9765,-2.17188 z m -86.3828,61.23434 c -0.9,17.26 -0.3693,36.7207 -0.1993,54.1407 0.18,18.9099 -0.1107,38.6622 0.4493,57.4922 l 14.582,-3.961 2.0078,-1.3398 c 0.96,-6.48 0.3725,-26.1815 0.3125,-33.6914 l -0.1406,-57.6485 c -3.92,-5.32 -10.8818,-12.4222 -17.0117,-14.9922 z m -98.25396,0.75 c -6.10699,4.95 -10.40338,8.2016 -15.60937,14.1016 -0.051,13.52 -1.69678,83.3509 0.82422,91.4609 l 2.27734,1.3282 13.72656,2.7812 c 0.013,-11 1.04225,-107.5119 -1.21875,-109.6719 z" />
    </clipPath>
  </defs>
  <path
     fill="rgb(27,44,50)"
     d="m 1004.51,613.003 c 109.4281,-9.2547 220.0357,53.68649 268.6837,151.99917 50.3521,96.4005 36.669,221.53811 -33.7717,304.50213 -67.4972,83.7982 -185.8336,121.003 -289.21536,91.4352 C 843.22097,1132.841 758.93015,1035.6588 746.98699,925.57594 732.46593,818.76856 787.08034,707.12301 879.83617,652.43576 917.47502,629.60633 960.60319,616.03549 1004.51,613.003 Z"
     id="path11"
     style="fill:#000000"
     clip-path="url(#clipPath229)"
     inkscape:path-effect="#path-effect242"
     inkscape:original-d="m 1004.51,613.003 c 109.4281,-9.2547 220.0357,53.68649 268.6837,151.99917 50.3521,96.4005 36.669,221.53811 -33.7717,304.50213 -67.4972,83.7982 -185.8336,121.003 -289.21536,91.4352 C 843.22097,1132.841 758.93015,1035.6588 746.98699,925.57594 732.46593,818.76856 787.08034,707.12301 879.83617,652.43576 917.47502,629.60633 960.60319,616.03549 1004.51,613.003 Z" />
  <path
     transform="translate(0,0)"
     fill="rgb(27,44,50)"
     d="m 716.174,1440.81 c 21.935,-0.98 51.896,-0.69 73.981,-0.2 l -0.029,26.67 26.131,0.13 0.047,72.64 -26.477,0.4 0.305,26.61 -73.668,-0.13 c -0.255,-8.67 -0.113,-17.82 -0.119,-26.53 -8.432,-0.43 -18.25,-0.29 -26.791,-0.38 0.429,-24.17 -0.545,-48.44 -0.11,-72.81 h 26.758 z"
     id="path25"
     clip-path="url(#clipPath65)"
     inkscape:path-effect="#path-effect65"
     inkscape:original-d="M 716.174 1440.81 C 738.109 1439.83 768.07 1440.12 790.155 1440.61 L 790.126 1467.28 L 816.257 1467.41 L 816.304 1540.05 L 789.827 1540.45 L 790.132 1567.06 L 716.464 1566.93 C 716.209 1558.26 716.351 1549.11 716.345 1540.4 C 707.913 1539.97 698.095 1540.11 689.554 1540.02 C 689.983 1515.85 689.009 1491.58 689.444 1467.21 L 716.202 1467.21 L 716.174 1440.81 z"
     style="fill:#000000" />
  <path
     transform="translate(0,0)"
     fill="rgb(27,44,50)"
     d="m 970.899,460.264 c 18.35,-0.939 39.411,0.11 58.081,-0.446 13.15,0.542 27.64,-1.057 40.68,0.265 33.84,3.429 20.74,34.56 18.64,56.411 -0.92,9.517 -6.57,15.438 -13.4,20.238 -25.83,1.722 -76.347,0.442 -103.278,0.144 -5.171,-3.006 -11.11,-7.753 -12.36,-13.738 -4.353,-20.851 -15.443,-54.068 11.637,-62.874 z"
     id="path27"
     style="fill:#000000"
     clip-path="url(#clipPath104)"
     inkscape:path-effect="#path-effect104"
     inkscape:original-d="M 970.899 460.264 C 989.249 459.325 1010.31 460.374 1028.98 459.818 C 1042.13 460.36 1056.62 458.761 1069.66 460.083 C 1103.5 463.512 1090.4 494.643 1088.3 516.494 C 1087.38 526.011 1081.73 531.932 1074.9 536.732 C 1049.07 538.454 998.553 537.174 971.622 536.876 C 966.451 533.87 960.512 529.123 959.262 523.138 C 954.909 502.287 943.819 469.07 970.899 460.264 z" />
  <path
     transform="translate(0,0)"
     fill="rgb(27,44,50)"
     d="M 1300.02 663.141 C 1303.08 662.742 1302.94 662.739 1305.98 663.3 C 1313.75 668.55 1357.79 738.558 1365.65 751.097 C 1357.22 770.752 1328.04 800.817 1312.53 818.15 L 1309.07 807.814 C 1292.94 757.287 1268.13 723.628 1233.69 684.767 C 1255.82 678.64 1278.32 668.741 1300.02 663.141 z"
     id="path29"
     style="fill:#000000" />
  <path
     transform="translate(0,0)"
     fill="rgb(27,44,50)"
     d="M 742.843 662.728 C 763.035 666.873 794.253 677.887 814.641 684.456 C 780.576 721.802 759.145 753.435 741.933 801.461 L 737.28 816.732 C 724.001 803.625 688.631 767.541 683.002 750.487 C 694.098 732.581 705.553 714.899 717.358 697.453 C 724.368 686.922 734.024 671.219 742.843 662.728 z"
     id="path30"
     style="fill:#000000" />
  <path
     transform="translate(0,0)"
     fill="rgb(27,44,50)"
     d="m 1354.8,604.137 c 8.1,-0.381 17.32,1.083 22.45,8.313 8.06,13.084 19.63,28.119 26.76,41.43 9.74,18.165 34.86,38.952 26.63,60.076 -5.5,14.093 -23.54,20.429 -35.9,26.52 -4.59,1.42 -13.36,4.622 -17.05,0.357 -8.49,-9.782 -15.53,-21.302 -22.61,-32.15 -12.34,-19.268 -24.97,-38.346 -37.89,-57.229 6.84,-19.318 15.55,-41.902 37.61,-47.317 z"
     id="path31"
     style="fill:#000000"
     clip-path="url(#clipPath108)"
     inkscape:path-effect="#path-effect108"
     inkscape:original-d="M 1354.8 604.137 C 1362.9 603.756 1372.12 605.22 1377.25 612.45 C 1385.31 625.534 1396.88 640.569 1404.01 653.88 C 1413.75 672.045 1438.87 692.832 1430.64 713.956 C 1425.14 728.049 1407.1 734.385 1394.74 740.476 C 1390.15 741.896 1381.38 745.098 1377.69 740.833 C 1369.2 731.051 1362.16 719.531 1355.08 708.683 C 1342.74 689.415 1330.11 670.337 1317.19 651.454 C 1324.03 632.136 1332.74 609.552 1354.8 604.137 z" />
  <path
     transform="translate(0,0)"
     fill="rgb(27,44,50)"
     d="m 970.395,1255.3 c 34.885,-0.75 72.315,-0.27 107.295,-0.22 11.85,10.68 12.47,22.13 14.68,37.19 2.27,15.45 -1.5,26.82 -16.68,32.93 -16.46,1.18 -98.891,2.82 -109.579,-1.97 -5.174,-2.32 -9.449,-7.18 -11.49,-12.42 -4.111,-10.55 0.265,-35.6 5.21,-45.88 2.462,-5.12 5.189,-7.87 10.564,-9.63 z"
     id="path33"
     style="fill:#000000"
     clip-path="url(#clipPath101)"
     inkscape:path-effect="#path-effect101"
     inkscape:original-d="M 970.395 1255.3 C 1005.28 1254.55 1042.71 1255.03 1077.69 1255.08 C 1089.54 1265.76 1090.16 1277.21 1092.37 1292.27 C 1094.64 1307.72 1090.87 1319.09 1075.69 1325.2 C 1059.23 1326.38 976.799 1328.02 966.111 1323.23 C 960.937 1320.91 956.662 1316.05 954.621 1310.81 C 950.51 1300.26 954.886 1275.21 959.831 1264.93 C 962.293 1259.81 965.02 1257.06 970.395 1255.3 z" />
  <path
     fill="rgb(27,44,50)"
     d="m 682.258,605.222 c 29.073,-3.115 39.784,23.075 48.449,45.849 -1.603,2.702 -6.843,10.916 -8.702,13.022 -12.336,13.978 -43.049,72.371 -56.295,79.513 -17.842,-1.494 -61.688,-23.384 -48.894,-45.548 10.972,-19.008 48.351,-84.879 65.442,-92.836 z"
     id="path35"
     style="fill:#000000"
     clip-path="url(#clipPath103)"
     inkscape:path-effect="#path-effect103"
     inkscape:original-d="M 682.258 605.222 C 711.331 602.107 722.042 628.297 730.707 651.071 C 729.104 653.773 723.864 661.987 722.005 664.093 C 709.669 678.071 678.956 736.464 665.71 743.606 C 647.868 742.112 604.022 720.222 616.816 698.058 C 627.788 679.05 665.167 613.179 682.258 605.222 z"
     transform="translate(0,0)" />
  <path
     transform="translate(0,0)"
     fill="rgb(27,58,61)"
     d="M 1310.73 961.516 C 1321.87 971.492 1356.85 1007.19 1365.39 1018.13 C 1360.73 1029.54 1316.84 1109.49 1309.4 1113.68 C 1305.27 1116.01 1297.43 1113.35 1293.07 1112.38 C 1275.09 1107.74 1251.2 1102.43 1234.18 1096.66 C 1268.6 1062.67 1299.65 1008.55 1310.73 961.516 z"
     id="path37"
     style="fill:#000000" />
  <path
     transform="translate(0,0)"
     fill="rgb(27,58,61)"
     d="m 1398.51,1020.35 c 17.87,-1.38 47.45,4.21 41.65,31.24 -1.21,5.63 -11.03,21.24 -14.52,26.76 -14.18,22.42 -25.62,46.35 -39.54,68.86 -4.31,6.92 -9.9,9 -17.52,10.42 -22.31,0.11 -33.2,-20.22 -44.05,-36.67 4.01,-9.65 20.14,-36.63 26,-46.4 9.17,-15.29 18.41,-33.92 27.47,-48.55 7.7,-4.08 12.12,-4.58 20.51,-5.66 z"
     id="path38"
     style="fill:#000000"
     clip-path="url(#clipPath100)"
     inkscape:path-effect="#path-effect100"
     inkscape:original-d="M 1398.51 1020.35 C 1416.38 1018.97 1445.96 1024.56 1440.16 1051.59 C 1438.95 1057.22 1429.13 1072.83 1425.64 1078.35 C 1411.46 1100.77 1400.02 1124.7 1386.1 1147.21 C 1381.79 1154.13 1376.2 1156.21 1368.58 1157.63 C 1346.27 1157.74 1335.38 1137.41 1324.53 1120.96 C 1328.54 1111.31 1344.67 1084.33 1350.53 1074.56 C 1359.7 1059.27 1368.94 1040.64 1378 1026.01 C 1385.7 1021.93 1390.12 1021.43 1398.51 1020.35 z" />
  <path
     transform="translate(0,0)"
     fill="rgb(27,58,61)"
     d="M 736.53 963.792 C 736.876 964.158 749.101 998.185 750.458 1001.51 C 765.467 1038.31 787.022 1066.88 812.788 1096.66 C 795.128 1102.31 774.976 1107.1 756.873 1111.79 C 751.224 1112.95 745.163 1114.67 739.659 1113.49 C 731.785 1107.86 688.885 1031.51 683.645 1018.98 C 692.979 1005.1 723.479 976.832 736.53 963.792 z"
     id="path40"
     style="fill:#000000" />
  <path
     transform="translate(0,0)"
     fill="rgb(27,58,61)"
     d="m 634.024,1021.13 c 12.178,-0.61 24.247,0.66 35.854,4.44 4.598,6.7 12.019,21.02 16.319,28.54 12.657,21.99 25.184,44.06 37.581,66.21 -6.917,13.27 -16.62,24.89 -28.445,34.06 -12.508,5.73 -24.157,3.76 -31.627,-8.32 -17.154,-27.76 -33.314,-56.2 -49.724,-84.39 -12.348,-21.21 -2.772,-34.99 20.042,-40.54 z"
     id="path41"
     style="fill:#000000"
     clip-path="url(#clipPath102)"
     inkscape:path-effect="#path-effect102"
     inkscape:original-d="M 634.024 1021.13 C 646.202 1020.52 658.271 1021.79 669.878 1025.57 C 674.476 1032.27 681.897 1046.59 686.197 1054.11 C 698.854 1076.1 711.381 1098.17 723.778 1120.32 C 716.861 1133.59 707.158 1145.21 695.333 1154.38 C 682.825 1160.11 671.176 1158.14 663.706 1146.06 C 646.552 1118.3 630.392 1089.86 613.982 1061.67 C 601.634 1040.46 611.21 1026.68 634.024 1021.13 z" />
  <path
     transform="translate(0,0)"
     fill="rgb(27,44,50)"
     d="M 947.65 1173.41 C 1008.13 1186.03 1035.92 1187.13 1097.58 1173.54 C 1093.02 1188.11 1088.75 1203.87 1084.47 1218.61 C 1083.63 1221.15 1082.77 1223.68 1081.9 1226.21 C 1080.29 1230.85 1077.92 1238.73 1073.03 1240.88 C 1067.44 1243.33 975.708 1243.04 971.501 1240.56 C 961.755 1234.81 951.682 1185.75 947.65 1173.41 z"
     id="path43"
     style="fill:#000000" />
  <path
     transform="translate(0,0)"
     fill="rgb(27,44,50)"
     d="M 851.683 1440.47 C 859.709 1440.34 868.273 1440.58 876.341 1440.66 L 876.213 1540.31 L 943.953 1540.41 L 943.953 1440.84 C 952.572 1440.68 961.499 1440.77 970.147 1440.74 L 970.257 1470.75 C 970.645 1493.96 970.758 1517.16 970.594 1540.37 L 943.943 1540.68 L 943.927 1567.04 L 875.756 1566.96 C 875.409 1558.04 875.691 1549.72 875.94 1540.82 C 868.052 1539.98 857.368 1540.19 849.242 1540.11 L 849.219 1475.55 C 849.207 1466.99 848.733 1449.15 849.777 1441.66 L 851.683 1440.47 z"
     id="path44"
     style="fill:#000000" />
  <path
     transform="translate(0,0)"
     fill="rgb(27,44,50)"
     d="M 1029.19 1440.73 C 1051.98 1440.56 1074.77 1440.59 1097.56 1440.83 C 1097.27 1449.45 1097.26 1458.43 1097.12 1467.09 L 1123.03 1467.18 L 1123.03 1567.13 L 1096.72 1566.96 C 1097.1 1533.99 1096.47 1500.61 1096.74 1467.51 C 1074.47 1467.27 1052.2 1467.18 1029.93 1467.24 L 1030.27 1567.09 L 1003.07 1566.99 L 1003.02 1467.39 C 1012.17 1467.66 1020.04 1467.56 1029.19 1467.28 L 1029.19 1440.73 z"
     id="path45"
     style="fill:#000000" />
  <path
     transform="translate(0,0)"
     fill="rgb(27,58,61)"
     d="M 989.792 550.492 C 1017.38 550.32 1049.36 549.643 1076.64 550.837 C 1083.27 561.775 1091.69 596.32 1095.95 610.812 C 1083.71 607.667 1067.88 605.794 1055.24 604.166 C 1020.39 600.787 985.226 603.108 951.126 611.038 C 955.583 592.861 961.204 567.704 968.542 551.069 L 989.792 550.492 z"
     id="path46"
     style="fill:#000000" />
  <path
     transform="translate(0,0)"
     fill="rgb(27,44,50)"
     d="M 567.301 1440.76 C 589.447 1439.51 631.888 1440.47 654.4 1440.84 C 654.306 1449.56 654.413 1458.46 654.423 1467.2 C 626.262 1467.54 595.292 1466.32 567.525 1467.57 C 568.115 1491.11 567.609 1516.35 567.831 1540.13 L 620.75 1540.36 L 653.94 1540.27 L 653.915 1567.11 L 567.057 1566.91 L 567.131 1541.01 C 558.26 1540.43 549.36 1540.37 540.471 1540.22 L 540.602 1467.8 C 549.407 1468 558.462 1467.77 567.287 1467.67 L 567.301 1440.76 z"
     id="path47"
     style="fill:#000000" />
  <path
     transform="translate(0,0)"
     fill="rgb(27,44,50)"
     d="M 1399.03 1440.82 L 1424.97 1440.86 L 1425.13 1540.61 L 1510 1540.83 L 1509.82 1566.73 C 1505.83 1567.56 1487.7 1567.24 1482.55 1567.22 L 1424.96 1566.99 L 1424.95 1540.94 C 1416.42 1540.42 1407.46 1540.44 1398.88 1540.33 L 1399.03 1440.82 z"
     id="path48"
     style="fill:#000000" />
  <path
     transform="translate(0,0)"
     fill="rgb(27,44,50)"
     d="M 1184.11 1440.6 L 1242.27 1440.72 L 1269.81 1440.87 L 1270.02 1467.48 L 1184.81 1467.12 C 1184.14 1491.68 1184.71 1516.01 1184.06 1540.23 C 1175.39 1540.3 1166.48 1540.49 1157.83 1540.44 C 1157.65 1517.52 1156.79 1489.74 1157.66 1467.17 L 1184.47 1467.09 L 1184.11 1440.6 z"
     id="path49"
     style="fill:#000000" />
  <path
     transform="translate(0,0)"
     fill="rgb(27,44,50)"
     d="M 1303.93 1440.89 L 1365.43 1440.76 L 1365.32 1467.11 L 1340.05 1467.18 L 1339.91 1540.71 L 1365.25 1540.73 C 1365.49 1549.25 1365.23 1558.3 1365.14 1566.86 C 1357.02 1568 1314.36 1567.07 1304.02 1567.01 L 1303.95 1540.82 L 1328.14 1540.75 L 1328.15 1467.39 C 1320.23 1467.14 1311.89 1467.18 1303.93 1467.08 L 1303.93 1440.89 z"
     id="path50"
     style="fill:#000000" />
  <path
     transform="translate(0,0)"
     fill="rgb(27,44,50)"
     d="M 1184.06 1540.23 C 1212.04 1540.37 1241.44 1540.97 1269.33 1540.56 C 1269.52 1549.46 1269.78 1558.18 1269.49 1567.08 L 1184.11 1566.99 L 1184.06 1540.23 z"
     id="path51"
     style="fill:#000000" />
  <path
     transform="translate(0,0)"
     fill="rgb(27,58,61)"
     d="M 825.498 1108 L 827.013 1108 C 831.384 1111.23 837.391 1117.68 841.398 1121.74 C 809.007 1131.15 773.978 1139.68 741.169 1147.73 C 738.592 1148.64 737.537 1148.83 734.905 1149.37 C 731.234 1148.49 729.057 1145.53 726.362 1142.75 C 729.711 1136.53 730.614 1134.72 735.236 1129.28 C 752.089 1128.68 808.184 1113.56 825.498 1108 z"
     id="path52"
     style="fill:#000000" />
  <path
     transform="translate(0,0)"
     fill="rgb(27,44,50)"
     d="M 666.774 756.969 C 667.802 757.658 681.47 775.82 684 778.825 C 699.953 797.602 716.236 816.097 732.842 834.299 C 731.669 840.537 731.794 847.215 729.262 852.744 L 727.917 853.224 L 724.976 850.36 C 703.835 824.922 669.382 790.159 650.708 764.6 C 656.126 762.19 661.483 759.646 666.774 756.969 z"
     id="path53"
     style="fill:#000000" />
  <path
     transform="translate(0,0)"
     fill="rgb(27,44,50)"
     d="M 1381.65 756.875 C 1387.23 759.972 1392.4 761.618 1398.4 763.756 C 1395.57 768.164 1392.34 771.949 1388.94 775.923 C 1368.17 800.19 1347.67 825.026 1325.76 848.274 L 1319.72 854.68 L 1315.59 834.766 C 1335.68 814.265 1365.37 780.208 1381.65 756.875 z"
     id="path54"
     style="fill:#000000" />
  <path
     transform="translate(0,0)"
     fill="rgb(27,58,61)"
     d="M 729.617 925.829 C 731.223 927.461 733.369 944.048 733.934 947.629 C 719.573 958.471 702.272 977.826 688.662 990.196 C 682.372 995.913 677.196 1003.09 670.056 1008.69 C 665.9 1009.66 662.601 1008.32 658.35 1007.25 C 655.338 1005.71 654.162 1001.31 652.927 998.14 C 677.423 978.235 706.466 948.315 729.617 925.829 z"
     id="path55"
     style="fill:#000000" />
  <path
     transform="translate(0,0)"
     fill="rgb(27,58,61)"
     d="M 1220.74 1107.62 C 1236.12 1113.03 1298.21 1129.19 1313.54 1128.96 C 1317.76 1134.64 1318.74 1136.31 1321.81 1142.63 C 1318.55 1145.85 1316.39 1148.92 1311.73 1148.65 C 1282.5 1138.4 1239.79 1131.89 1207.3 1121.17 L 1220.74 1107.62 z"
     id="path56"
     style="fill:#000000" />
  <path
     transform="translate(0,0)"
     fill="rgb(27,58,61)"
     d="M 1318.12 924.412 C 1333.93 934.454 1362.37 972.242 1379.43 984.747 C 1382.65 987.108 1393.81 997.064 1394.72 999.928 C 1393.81 1003.51 1393.4 1003.6 1391.06 1006.37 L 1379.89 1009.79 C 1360.31 992.496 1333.87 964.278 1314.55 945.191 L 1318.12 924.412 z"
     id="path57"
     style="fill:#000000" />
  <path
     transform="translate(0,0)"
     fill="rgb(27,44,50)"
     d="M 744.902 629.64 C 754.756 631.394 778.252 640.006 788.368 643.399 C 805.552 649.163 824.523 654.87 841.222 661.327 L 832.203 668.456 C 830.52 670.182 829.051 671.505 827.281 673.117 C 823.48 673.482 748.36 648.24 742.132 645.158 C 738.1 640.007 741.395 633.983 744.902 629.64 z"
     id="path58"
     style="fill:#000000" />
  <path
     transform="translate(0,0)"
     fill="rgb(27,44,50)"
     d="M 1299.07 629.979 C 1302.47 630.526 1304 632.123 1306.19 634.431 C 1307.74 638.805 1306.85 645.179 1302.11 647.201 C 1292.32 651.379 1281.7 654.239 1271.52 657.459 C 1257.15 662.116 1242.81 666.874 1228.51 671.732 C 1224.54 673.037 1222.55 674.223 1219.39 672.619 L 1206.56 661.84 C 1233.96 650.851 1270.07 640.268 1299.07 629.979 z"
     id="path59"
     style="fill:#000000" />
  <path
     transform="translate(0,0)"
     fill="rgb(27,44,50)"
     d="M 913.158 1161.2 L 933.365 1169.72 C 938.89 1194.08 950.605 1227.61 954.76 1249.81 C 953.895 1252.37 951.481 1253.56 949.146 1255.23 L 941.102 1260.98 C 937.436 1250.84 933.217 1233.24 930.083 1222.22 C 924.445 1202.39 917.906 1181.13 913.158 1161.2 z"
     id="path60"
     style="fill:#000000" />
  <path
     transform="translate(0,0)"
     fill="rgb(27,44,50)"
     d="M 1130.25 1161.93 L 1131.43 1162.59 C 1130.62 1170.29 1106.8 1252.1 1103.47 1257.82 C 1100.21 1258.55 1101.93 1258.53 1098.02 1256.19 L 1090.27 1249.8 C 1091.57 1240.65 1096.15 1226.37 1098.86 1217.05 C 1103.47 1201.29 1107.96 1185.49 1112.35 1169.67 L 1130.25 1161.93 z"
     id="path61"
     style="fill:#000000" />
  <path
     transform="translate(0,0)"
     fill="rgb(27,58,61)"
     d="M 940.68 526.237 C 946.265 528.248 951.165 533.573 955.469 537.739 C 950.463 556.919 941.035 596.205 934.409 613.343 C 931.986 616.117 929.198 616.285 925.508 617.208 C 922.029 618.471 918.459 619.893 914.987 621.218 C 922.452 591.177 932.164 556.155 940.68 526.237 z"
     id="path62"
     style="fill:#000000" />
  <path
     transform="translate(0,0)"
     fill="rgb(27,58,61)"
     d="M 1104.93 526.782 C 1108.84 530.321 1128.36 609.704 1131.87 621.549 L 1121.24 617.492 L 1112.38 614.192 C 1106.23 592.989 1095.99 558.303 1091.77 537.34 L 1104.93 526.782 z"
     id="path63"
     style="fill:#000000" />
</svg>
