<?xml version="1.0" encoding="UTF-8" standalone="no"?>
<svg
   version="1.1"
   style="display: block;"
   viewBox="0 0 2048 2048"
   width="1024"
   height="1024"
   preserveAspectRatio="none"
   id="svg63"
   sodipodi:docname="council-logo-1k-no-background-no-logo.svg"
   inkscape:version="1.3.2 (091e20e, 2023-11-25, custom)"
   xmlns:inkscape="http://www.inkscape.org/namespaces/inkscape"
   xmlns:sodipodi="http://sodipodi.sourceforge.net/DTD/sodipodi-0.dtd"
   xmlns="http://www.w3.org/2000/svg"
   xmlns:svg="http://www.w3.org/2000/svg">
  <sodipodi:namedview
     id="namedview63"
     pagecolor="#505050"
     bordercolor="#eeeeee"
     borderopacity="1"
     inkscape:showpageshadow="0"
     inkscape:pageopacity="0"
     inkscape:pagecheckerboard="0"
     inkscape:deskcolor="#505050"
     inkscape:zoom="0.57275391"
     inkscape:cx="1389.7766"
     inkscape:cy="641.63682"
     inkscape:window-width="3440"
     inkscape:window-height="1369"
     inkscape:window-x="2152"
     inkscape:window-y="1279"
     inkscape:window-maximized="1"
     inkscape:current-layer="svg63" />
  <defs
     id="defs10">
    <linearGradient
       id="Gradient1"
       gradientUnits="userSpaceOnUse"
       x1="1159.48"
       y1="1002.24"
       x2="1000.51"
       y2="955.919">
      <stop
         class="stop0"
         offset="0"
         stop-opacity="1"
         stop-color="rgb(128,164,199)"
         id="stop1" />
      <stop
         class="stop1"
         offset="1"
         stop-opacity="1"
         stop-color="rgb(237,236,227)"
         id="stop2" />
    </linearGradient>
    <linearGradient
       id="Gradient2"
       gradientUnits="userSpaceOnUse"
       x1="880.787"
       y1="975.744"
       x2="1045.28"
       y2="929.073">
      <stop
         class="stop0"
         offset="0"
         stop-opacity="1"
         stop-color="rgb(129,168,199)"
         id="stop3" />
      <stop
         class="stop1"
         offset="1"
         stop-opacity="1"
         stop-color="rgb(239,237,229)"
         id="stop4" />
    </linearGradient>
    <linearGradient
       id="Gradient3"
       gradientUnits="userSpaceOnUse"
       x1="1290.71"
       y1="909.42"
       x2="1118.83"
       y2="788.079">
      <stop
         class="stop0"
         offset="0"
         stop-opacity="1"
         stop-color="rgb(206,218,219)"
         id="stop5" />
      <stop
         class="stop1"
         offset="1"
         stop-opacity="1"
         stop-color="rgb(235,231,230)"
         id="stop6" />
    </linearGradient>
    <linearGradient
       id="Gradient4"
       gradientUnits="userSpaceOnUse"
       x1="743.103"
       y1="885.127"
       x2="1001.88"
       y2="779.282">
      <stop
         class="stop0"
         offset="0"
         stop-opacity="1"
         stop-color="rgb(150,195,214)"
         id="stop7" />
      <stop
         class="stop1"
         offset="1"
         stop-opacity="1"
         stop-color="rgb(240,233,228)"
         id="stop8" />
    </linearGradient>
    <linearGradient
       id="Gradient5"
       gradientUnits="userSpaceOnUse"
       x1="1299.34"
       y1="860.674"
       x2="1056.38"
       y2="791.347">
      <stop
         class="stop0"
         offset="0"
         stop-opacity="1"
         stop-color="rgb(148,186,209)"
         id="stop9" />
      <stop
         class="stop1"
         offset="1"
         stop-opacity="1"
         stop-color="rgb(238,234,228)"
         id="stop10" />
    </linearGradient>
  </defs>
  <path
     fill="#1b2c32"
     d="m 1025.4614,745.69524 c 153.84,-10.862 287.36,105.038 298.24,258.87696 10.87,153.84 -105.01,287.37 -258.85,298.26 -153.86099,10.89 -287.41199,-105.02 -298.28899,-258.874 -10.877,-153.85896 105.04,-287.40096 258.89899,-298.26296 z"
     id="path11" />
  <path
     fill="url(#Gradient5)"
     d="m 1116.8714,779.03724 15.99,3.959 c 0.5,21.295 -0.77,47.29 0.63,67.678 2.96,2.899 6.38,6.467 9.5,9.067 3.86,-3.636 7.62,-7.054 11.17,-10.994 l 0.41,-55.548 c 5.36,2.414 10.93,4.76 15.96,7.774 0.46,13.374 1.13,38.065 0.38,51.413 -5.64,9.155 -17.66,19.642 -25.44,27.565 -14.8,15.069 -31.22,30.043 -45.63,45.455 -0.07,30.641 -1.51,75.93296 0.18,105.37396 9.76,10.913 44.22,46.073 55.99,55.828 46.07,1.12 93.29,-0.913 139.08,0.281 -1.15,5.731 -2.16,11.206 -3.79,16.834 l -65.31,-0.092 c -6.14,-0.013 -30.47,-1.257 -34.71,2.148 -2.07,-1.444 -10.14,-2.587 -13.41,-2.049 -4.68,-1.742 -20.7,-0.563 -26.33,-0.213 -10.04,-7.412 -59.35,-56.311 -67.32,-66.335 -0.13,-38.44496 -0.87,-79.38496 -0.04,-117.66096 10.05,-12.691 34.97,-35.644 47.51,-48.604 -3.34,-3.541 -12.65,-12.865 -13.28,-17.194 -3.04,-21.009 -1.41,-53.275 -1.54,-74.686 z"
     id="path12"
     style="fill:#ffffff" />
  <path
     fill="url(#Gradient4)"
     d="m 955.90341,783.37524 16.058,-2.989 c 0.171,23.696 0.162,47.393 -0.028,71.09 -4.782,7.782 -9.415,12.456 -15.697,18.979 12.919,14.155 38.482,36.381 48.10899,49.159 1.681,26.284 -0.142,54.188 0.489,80.65096 0.315,13.215 0.202,27.764 -0.789,40.897 -20.00199,20.087 -42.89999,43.871 -64.22199,61.97 -8.38,-0.614 -33.385,-1.073 -41.77,0.762 -32.661,-0.801 -67.915,-0.169 -100.783,-0.205 -1.459,-5.421 -2.785,-11.389 -4.124,-16.886 l 140.985,-0.022 c 14.01,-11.201 42.709,-40.898 54.798,-54.7 0.887,-11.706 0.498,-27.202 0.484,-39.17096 0.004,-22.494 -0.155,-44.989 -0.476,-67.481 -17.083,-21.107 -54.717,-50.178 -71.018,-71.935 -0.666,-16.298 -0.091,-36.064 -0.048,-52.621 5.169,-2.201 10.644,-4.83 15.79,-7.182 0.446,17.765 0.123,36.636 0.112,54.482 3.942,4.674 7.552,7.82 12.064,11.922 4.257,-4.058 6.316,-6.147 10.11,-10.691 z"
     id="path13"
     style="fill:#ffffff" />
  <path
     fill="#e6e9e6"
     d="m 835.48541,873.33524 c 9.525,8.07 17.748,21.569 30.693,31.762 9.647,-0.079 17.488,-0.181 27.149,0.652 8.407,6.508 18.535,17.56 24.47,26.328 9.986,0.906 24.212,0.597 34.516,0.675 7.738,6.498 13.09,11.478 20.03,18.757 1.054,21.105 0.78,48.26 0.391,69.44096 -7.402,9.235 -32.612,32.921 -41.728,40.491 -15.537,0.729 -35.291,0.284 -51.041,0.282 l -92.527,-0.068 -1.501,-15.037 c 39.355,-1.555 89.208,-0.111 129.264,-0.135 l 9.687,-0.407 c 10.623,-9.287 22.042,-20.855 32.271,-30.797 0.036,-18.89496 -0.057,-37.78896 -0.279,-56.68296 l -12.404,-11.757 c -9.295,-0.071 -18.59,0.016 -27.882,0.261 -0.899,15.819 -10.943,27.224 -24.677,34.557 -34.721,0.2 -69.444,0.221 -104.165,0.065 l 2.384,-15.075 c 26.335,-0.014 73.685,1.283 97.854,-1.064 5.543,-3.897 7.989,-6.255 12.892,-10.894 0.455,-6.355 0.323,-12.916 0.326,-19.304 -5.083,-5.797 -9.906,-10.381 -15.472,-15.733 -9.289,-0.128 -18.851,-0.004 -28.166,-0.002 -10.697,-8.408 -24.43,-22.65 -34.001,-32.581 4.266,-5.689 6.976,-8.591 11.916,-13.734 z"
     id="path14" />
  <path
     fill="url(#Gradient3)"
     d="m 1254.7014,875.26024 c 4.45,1.506 9.35,8.763 12.37,12.68 -10.51,8.948 -22.13,20.817 -32.38,30.514 -8.5,1.317 -21.28,0.997 -30.18,1.048 -4.79,4.895 -11.16,10.992 -14.94,16.461 -0.24,7.19 -0.15,11.051 0.46,18.213 4.96,5.498 6.96,7.345 12.88,11.71 28.06,1.731 68.86,0.723 97.87,0.825 0.71,4.973 0.94,10.112 1.26,15.136 l -105.42,-0.225 c -13.19,-12.42 -21.55,-17.146 -24.01,-34.644 -9.46,0.035 -18.93,0.009 -28.4,-0.078 -3.89,3.27 -8.46,8.017 -12.17,11.652 -0.11,18.293 0.02,36.587 0.38,54.87696 7.64,10.547 22.22,22.825 32.21,31.467 1.37,1.183 5.87,1.188 7.78,1.215 41.86,1.365 88.57,0.419 130.75,0.446 -0.12,5.322 -0.7,9.957 -1.27,15.227 h -142.78 c -9.91,-8.08 -33.76,-32.058 -42.39,-41.704 -1.54,-19.459 -0.69,-48.79096 -0.72,-68.91496 6.3,-5.865 12.55,-11.79 18.75,-17.775 11.24,-0.846 26.79,-0.588 38.38,-0.687 5.67,-11.904 14.45,-19.952 24.87,-27.754 8.75,-0.278 18.34,-0.108 27.16,-0.133 9.18,-8.158 20.71,-20.546 29.54,-29.556 z"
     id="path15"
     style="fill:#ffffff" />
  <path
     fill="url(#Gradient2)"
     d="m 1019.8684,769.57624 c 5.133,-0.37 10.473,-0.853 15.593,-0.97 0.88,31.631 0.46,64.444 0.47,96.185 l -0.02,159.10696 c -0.09,14.811 2.51,33.009 -0.82,47.36 -4.4,18.984 -61.90699,62.244 -76.01999,83.824 -0.167,0.25 -0.325,0.51 -0.487,0.77 -1.104,32.55 -0.179,76.31 0.079,109.44 l -16.659,-6.7 c -0.477,-36.48 -0.026,-73.88 0.005,-110.44 24.189,-28.099 54.743,-50.829 78.02099,-80.598 1.131,-20.51 -0.174,-47.107 0.178,-68.56096 z"
     id="path16"
     style="fill:#ffffff" />
  <path
     fill="#e6e9e6"
     d="m 1019.8684,769.57624 c 5.133,-0.37 10.473,-0.853 15.593,-0.97 0.88,31.631 0.46,64.444 0.47,96.185 l -0.02,159.10696 c -6.39,-12.423 2.58,-65.42196 -6.11,-72.54496 -2.27,2 -2.27,2.708 -4.76,3.07 -3.39,-6.32 -2.18,-35.993 -2.31,-45.766 -1.57,5.282 -0.12,40.491 -0.58,48.576 -1.12,19.693 1.03,42.523 -0.43,62.26596 -0.31,-4.792 0.32,-17.65 -1.513,-20.50596 z"
     id="path17" />
  <path
     fill="rgb(133,168,197)"
     d="m 1043.8714,1122.5792 c 7.58,5.966 21.59,19.843 27.47,27.103 1.9,39.22 0.49,88.96 0.4,129.05 -5.37,0.75 -10.92,0.8 -16.35,0.99 -1.24,-40.65 0.57,-83.06 -0.43,-124.08 -4.02,-4.62 -6.26,-6.21 -11.01,-9.86 -5.54,3.67 -6.56,4.79 -11,9.48 -0.66,12.51 -0.08,30.1 -0.04,42.92 l 0.17,81.57 c -5.54,-0.08 -10.85,-0.53 -16.365,-0.93 -0.403,-6.24 -0.442,-13.66 -0.34,-19.96 0.588,-36.28 -1.01,-73.05 0.191,-109.26 8.824,-9.28 17.934,-18.296 27.304,-27.023 z"
     id="path18"
     style="fill:#ffffff" />
  <path
     fill="url(#Gradient1)"
     d="m 1053.2914,1034.3202 c 0.35,1.195 0.86,2.445 1.3,3.625 6.07,-7.272 9.12,-32.524 4.47,-38.94196 l -2.62,1.55596 -1.17,-0.76296 c -1.09,-5.811 -0.36,-19.221 0.1,-25.421 0.48,4.659 -0.92,17.234 1.23,19.587 0.43,-7.721 -0.88,-31.586 9.64,-32.869 1.98,4.122 1.05,7.643 2.39,13.08 l 0.22,0.846 c 0.5,20.691 0.15,41.43296 0.12,62.13296 -0.01,9.283 -1.4,21.104 0.73,30.074 2.81,11.801 63.48,66.696 76.94,80.946 0.79,36.68 -0.36,74.51 0.89,110.8 -5.73,2.24 -11.02,4.32 -16.88,6.22 0.02,-31.98 1.54,-78.88 -0.27,-109.82 -13.14,-14.7 -71.44,-68.521 -75.53,-79.418 -4.28,-11.424 -1.67,-29.351 -1.56,-41.634 z"
     id="path19"
     style="fill:#ffffff" />
  <path
     fill="#e6e9e6"
     d="m 1053.3314,768.89924 c 5.21,0.184 10.87,0.613 16.12,0.914 0.98,25.995 0.32,55.613 0.27,81.938 0.09,41.091 -0.2,82.182 -0.87,123.268 l -0.22,-0.846 c -1.34,-5.437 -0.41,-8.958 -2.39,-13.08 -10.52,1.283 -9.21,25.148 -9.64,32.869 -2.15,-2.353 -0.75,-14.928 -1.23,-19.587 -0.46,6.2 -1.19,19.61 -0.1,25.421 l 1.17,0.76296 2.62,-1.55596 c 4.65,6.41796 1.6,31.66996 -4.47,38.94196 -0.44,-1.18 -0.95,-2.43 -1.3,-3.625 -0.37,-87.11896 -1.26,-178.52096 0.04,-265.42096 z"
     id="path20" />
  <path
     fill="rgb(133,168,197)"
     d="m 898.05341,1103.8942 c 8.385,-1.835 33.39,-1.376 41.77,-0.762 -7.729,1.012 -19.368,0.621 -27.443,0.591 l 0.088,14.018 c -10.004,9.839 -22.924,22.321 -33.831,31.031 -18.905,0.3 -42.757,0.92 -61.552,0.14 l -7.28,-16.71 c 18.688,-0.243 46.892,0.94 64.422,-0.646 6.04,-5.349 23.768,-19.349 23.826,-27.662 z"
     id="path21"
     style="fill:#ffffff" />
  <path
     fill="rgb(133,168,197)"
     d="m 1177.8714,1103.7302 c 3.27,-0.538 11.34,0.605 13.41,2.049 3.16,7.705 18.81,21.241 25.58,26.261 20.3,-0.087 42.71,-0.623 62.83,0.327 l -7.42,16.475 c -20.07,-0.06 -40.13,0 -60.19,0.16 -9.27,-7.17 -25.77,-22.651 -34.05,-31.05 z"
     id="path22"
     style="fill:#ffffff" />
  <path
     fill="rgb(133,168,197)"
     d="m 1092.9214,1164.8422 c 6.13,2.57 13.09,9.67 17.01,14.99 l 0.14,57.65 c 0.06,7.51 0.65,27.21 -0.31,33.69 l -2.01,1.34 -14.58,3.96 c -0.56,-18.83 -0.27,-38.58 -0.45,-57.49 -0.17,-17.42 -0.7,-36.88 0.2,-54.14 z"
     id="path23"
     style="fill:#ffffff" />
  <path
     fill="rgb(133,168,197)"
     d="m 994.66541,1165.5922 c 2.261,2.16 1.234,98.67 1.221,109.67 l -13.727,-2.78 -2.278,-1.33 c -2.521,-8.11 -0.875,-77.94 -0.824,-91.46 5.206,-5.9 9.501,-9.15 15.608,-14.1 z"
     id="path24"
     style="fill:#ffffff" />
  <path
     fill="#1b2c32"
     d="m 991.85041,592.95624 c 18.34999,-0.939 39.41099,0.11 58.08099,-0.446 13.15,0.542 27.64,-1.057 40.68,0.265 33.84,3.429 20.74,34.56 18.64,56.411 -0.92,9.517 -6.57,15.438 -13.4,20.238 -25.83,1.722 -76.347,0.442 -103.27799,0.144 -5.171,-3.006 -11.11,-7.753 -12.36,-13.738 -4.353,-20.851 -15.443,-54.068 11.637,-62.874 z"
     id="path27" />
  <path
     fill="#e5a25a"
     d="m 993.63841,603.83024 c 31.00299,-1.657 65.96299,0.358 97.18299,0.011 5.61,-0.063 15.33,10.997 3.89,15.53 -12.93,-0.292 -99.50199,1.631 -104.90899,-1.803 -3.671,-5.884 -0.395,-9.382 3.836,-13.738 z"
     id="path28" />
  <path
     fill="#1b2c32"
     d="m 1320.9714,795.83324 c 3.06,-0.399 2.92,-0.402 5.96,0.159 7.77,5.25 51.81,75.258 59.67,87.797 -8.43,19.655 -37.61,49.72 -53.12,67.053 l -3.46,-10.336 c -16.13,-50.527 -40.94,-84.186 -75.38,-123.047 22.13,-6.127 44.63,-16.026 66.33,-21.626 z"
     id="path29" />
  <path
     fill="#1b2c32"
     d="m 763.79441,795.42024 c 20.192,4.145 51.41,15.159 71.798,21.728 -34.065,37.346 -55.496,68.979 -72.708,117.005 l -4.653,15.271 c -13.279,-13.107 -48.649,-49.191 -54.278,-66.245 11.096,-17.906 22.551,-35.588 34.356,-53.034 7.01,-10.531 16.666,-26.234 25.485,-34.725 z"
     id="path30" />
  <path
     fill="#1b2c32"
     d="m 1375.7514,736.82924 c 8.1,-0.381 17.32,1.083 22.45,8.313 8.06,13.084 19.63,28.119 26.76,41.43 9.74,18.165 34.86,38.952 26.63,60.076 -5.5,14.093 -23.54,20.429 -35.9,26.52 -4.59,1.42 -13.36,4.622 -17.05,0.357 -8.49,-9.782 -15.53,-21.302 -22.61,-32.15 -12.34,-19.268 -24.97,-38.346 -37.89,-57.229 6.84,-19.318 15.55,-41.902 37.61,-47.317 z"
     id="path31" />
  <path
     fill="#cb9492"
     d="m 1379.7914,749.48124 1.36,0.043 c 2.56,0.065 6.14,-0.085 7.87,2.354 17.92,25.326 35.29,51.741 51.64,78.129 4.32,6.982 0.76,13.586 -4.89,18.083 -0.6,-0.043 -3.8,-0.332 -4.22,-1.151 -15.76,-30.593 -41.58,-60.499 -57.29,-90.471 0.61,-3.284 2.93,-4.658 5.53,-6.987 z"
     id="path32" />
  <path
     fill="#1b2c32"
     d="m 991.34641,1387.9922 c 34.88499,-0.75 72.31499,-0.27 107.29499,-0.22 11.85,10.68 12.47,22.13 14.68,37.19 2.27,15.45 -1.5,26.82 -16.68,32.93 -16.46,1.18 -98.89099,2.82 -109.57899,-1.97 -5.174,-2.32 -9.449,-7.18 -11.49,-12.42 -4.111,-10.55 0.265,-35.6 5.21,-45.88 2.462,-5.12 5.189,-7.87 10.564,-9.63 z"
     id="path33" />
  <path
     fill="#9877a4"
     d="m 990.92641,1431.8122 c 15.45799,-0.64 97.29499,-2.1 107.27499,0.67 4.18,6.02 1.42,9.53 -2.91,14.54 -10.61,1.82 -98.84199,1.91 -103.82799,-1.55 -2.167,-1.5 -3.008,-3.79 -3.182,-6.35 -0.221,-3.26 0.832,-4.86 2.645,-7.31 z"
     id="path34" />
  <path
     fill="#1b2c32"
     d="m 703.20941,737.91424 c 29.073,-3.115 39.784,23.075 48.449,45.849 -1.603,2.702 -6.843,10.916 -8.702,13.022 -12.336,13.978 -43.049,72.371 -56.295,79.513 -17.842,-1.494 -61.688,-23.384 -48.894,-45.548 10.972,-19.008 48.351,-84.879 65.442,-92.836 z"
     id="path35" />
  <path
     fill="#9877a4"
     d="m 705.88141,748.59124 c 4.78,0.964 8.603,2.033 10.666,6.785 -0.34,2.838 -2.1,5.932 -3.679,8.333 -13.73,20.879 -27.957,41.418 -41.182,62.635 -4.345,6.971 -8.695,14.453 -13.943,20.741 -3.522,0.917 -5.685,-0.123 -8.167,-2.426 -0.813,-2.419 -1.43,-3.941 -1.245,-6.489 0.219,-3.04 3.006,-10.407 4.475,-12.644 9.565,-14.561 42.433,-68.6 53.075,-76.935 z"
     id="path36" />
  <path
     fill="#1b3a3d"
     d="m 1331.6814,1094.2082 c 11.14,9.976 46.12,45.674 54.66,56.614 -4.66,11.41 -48.55,91.36 -55.99,95.55 -4.13,2.33 -11.97,-0.33 -16.33,-1.3 -17.98,-4.64 -41.87,-9.95 -58.89,-15.72 34.42,-33.99 65.47,-88.11 76.55,-135.144 z"
     id="path37" />
  <path
     fill="#1b3a3d"
     d="m 1419.4614,1153.0422 c 17.87,-1.38 47.45,4.21 41.65,31.24 -1.21,5.63 -11.03,21.24 -14.52,26.76 -14.18,22.42 -25.62,46.35 -39.54,68.86 -4.31,6.92 -9.9,9 -17.52,10.42 -22.31,0.11 -33.2,-20.22 -44.05,-36.67 4.01,-9.65 20.14,-36.63 26,-46.4 9.17,-15.29 18.41,-33.92 27.47,-48.55 7.7,-4.08 12.12,-4.58 20.51,-5.66 z"
     id="path38" />
  <path
     fill="#cb9492"
     d="m 1440.3514,1171.2722 c 5.24,1.02 9.03,3.5 9.69,9.14 -3.8,14.5 -42.64,74.1 -51.4,91.13 -1.07,2.08 -3.74,4.27 -5.64,5.69 -1.8,-0.32 -3.54,-0.93 -5.15,-1.79 -3.39,-1.79 -3.78,-3.41 -4.65,-6.48 0.48,-2.73 52.95,-92.27 57.15,-97.69 z"
     id="path39" />
  <path
     fill="#1b3a3d"
     d="m 757.48141,1096.4842 c 0.346,0.366 12.571,34.393 13.928,37.718 15.009,36.8 36.564,65.37 62.33,95.15 -17.66,5.65 -37.812,10.44 -55.915,15.13 -5.649,1.16 -11.71,2.88 -17.214,1.7 -7.874,-5.63 -50.774,-81.98 -56.014,-94.51 9.334,-13.88 39.834,-42.148 52.885,-55.188 z"
     id="path40" />
  <path
     fill="#1b3a3d"
     d="m 654.97541,1153.8222 c 12.178,-0.61 24.247,0.66 35.854,4.44 4.598,6.7 12.019,21.02 16.319,28.54 12.657,21.99 25.184,44.06 37.581,66.21 -6.917,13.27 -16.62,24.89 -28.445,34.06 -12.508,5.73 -24.157,3.76 -31.627,-8.32 -17.154,-27.76 -33.314,-56.2 -49.724,-84.39 -12.348,-21.21 -2.772,-34.99 20.042,-40.54 z"
     id="path41" />
  <path
     fill="#85a8c5"
     d="m 647.32441,1173.5022 c 1.733,0.05 6.142,0.69 6.837,2.09 6.126,12.3 55.437,87.8 55.47,93.91 -1.175,3.42 -2.769,4.33 -5.502,6.7 -2.499,0.44 -6.404,0.64 -8.029,-1.81 -18.533,-27.91 -35.965,-57.19 -52.287,-86.48 -3.998,-7.17 -2.041,-9.94 3.511,-14.41 z"
     id="path42" />
  <path
     fill="#1b2c32"
     d="m 968.60141,1306.1022 c 60.47999,12.62 88.26999,13.72 149.92999,0.13 -4.56,14.57 -8.83,30.33 -13.11,45.07 -0.84,2.54 -1.7,5.07 -2.57,7.6 -1.61,4.64 -3.98,12.52 -8.87,14.67 -5.59,2.45 -97.32199,2.16 -101.52899,-0.32 -9.746,-5.75 -19.819,-54.81 -23.851,-67.15 z"
     id="path43" />
  <path
     fill="#1b3a3d"
     d="m 1010.7434,683.18424 c 27.588,-0.172 59.568,-0.849 86.848,0.345 6.63,10.938 15.05,45.483 19.31,59.975 -12.24,-3.145 -28.07,-5.018 -40.71,-6.646 -34.85,-3.379 -70.014,-1.058 -104.11399,6.872 4.457,-18.177 10.078,-43.334 17.416,-59.969 z"
     id="path46" />
  <path
     fill="#1b3a3d"
     d="m 846.44941,1240.6922 h 1.515 c 4.371,3.23 10.378,9.68 14.385,13.74 -32.391,9.41 -67.42,17.94 -100.229,25.99 -2.577,0.91 -3.632,1.1 -6.264,1.64 -3.671,-0.88 -5.848,-3.84 -8.543,-6.62 3.349,-6.22 4.252,-8.03 8.874,-13.47 16.853,-0.6 72.948,-15.72 90.262,-21.28 z"
     id="path52" />
  <path
     fill="#1b2c32"
     d="m 687.72541,889.66124 c 1.028,0.689 14.696,18.851 17.226,21.856 15.953,18.777 32.236,37.272 48.842,55.474 -1.173,6.238 -1.048,12.916 -3.58,18.445 l -1.345,0.48 -2.941,-2.864 c -21.141,-25.438 -55.594,-60.201 -74.268,-85.76 5.418,-2.41 10.775,-4.954 16.066,-7.631 z"
     id="path53" />
  <path
     fill="#1b2c32"
     d="m 1402.6014,889.56724 c 5.58,3.097 10.75,4.743 16.75,6.881 -2.83,4.408 -6.06,8.193 -9.46,12.167 -20.77,24.267 -41.27,49.103 -63.18,72.351 l -6.04,6.406 -4.13,-19.914 c 20.09,-20.501 49.78,-54.558 66.06,-77.891 z"
     id="path54" />
  <path
     fill="#1b3a3d"
     d="m 750.56841,1058.5212 c 1.606,1.632 3.752,18.219 4.317,21.8 -14.361,10.842 -31.662,30.197 -45.272,42.567 -6.29,5.717 -11.466,12.894 -18.606,18.494 -4.156,0.97 -7.455,-0.37 -11.706,-1.44 -3.012,-1.54 -4.188,-5.94 -5.423,-9.11 24.496,-19.905 53.539,-49.825 76.69,-72.311 z"
     id="path55" />
  <path
     fill="#1b3a3d"
     d="m 1241.6914,1240.3122 c 15.38,5.41 77.47,21.57 92.8,21.34 4.22,5.68 5.2,7.35 8.27,13.67 -3.26,3.22 -5.42,6.29 -10.08,6.02 -29.23,-10.25 -71.94,-16.76 -104.43,-27.48 z"
     id="path56" />
  <path
     fill="#1b3a3d"
     d="m 1339.0714,1057.1042 c 15.81,10.042 44.25,47.83 61.31,60.335 3.22,2.361 14.38,12.317 15.29,15.181 -0.91,3.582 -1.32,3.672 -3.66,6.442 l -11.17,3.42 c -19.58,-17.294 -46.02,-45.512 -65.34,-64.599 z"
     id="path57" />
  <path
     fill="#1b2c32"
     d="m 765.85341,762.33224 c 9.854,1.754 33.35,10.366 43.466,13.759 17.184,5.764 36.155,11.471 52.854,17.928 l -9.019,7.129 c -1.683,1.726 -3.152,3.049 -4.922,4.661 -3.801,0.365 -78.921,-24.877 -85.149,-27.959 -4.032,-5.151 -0.737,-11.175 2.77,-15.518 z"
     id="path58" />
  <path
     fill="#1b2c32"
     d="m 1320.0214,762.67124 c 3.4,0.547 4.93,2.144 7.12,4.452 1.55,4.374 0.66,10.748 -4.08,12.77 -9.79,4.178 -20.41,7.038 -30.59,10.258 -14.37,4.657 -28.71,9.415 -43.01,14.273 -3.97,1.305 -5.96,2.491 -9.12,0.887 l -12.83,-10.779 c 27.4,-10.989 63.51,-21.572 92.51,-31.861 z"
     id="path59" />
  <path
     fill="#1b2c32"
     d="m 934.10941,1293.8922 20.207,8.52 c 5.525,24.36 17.24,57.89 21.395,80.09 -0.865,2.56 -3.279,3.75 -5.614,5.42 l -8.044,5.75 c -3.666,-10.14 -7.885,-27.74 -11.019,-38.76 -5.638,-19.83 -12.177,-41.09 -16.925,-61.02 z"
     id="path60" />
  <path
     fill="#1b2c32"
     d="m 1151.2014,1294.6222 1.18,0.66 c -0.81,7.7 -24.63,89.51 -27.96,95.23 -3.26,0.73 -1.54,0.71 -5.45,-1.63 l -7.75,-6.39 c 1.3,-9.15 5.88,-23.43 8.59,-32.75 4.61,-15.76 9.1,-31.56 13.49,-47.38 z"
     id="path61" />
  <path
     fill="#1b3a3d"
     d="m 961.63141,658.92924 c 5.585,2.011 10.485,7.336 14.789,11.502 -5.006,19.18 -14.434,58.466 -21.06,75.604 -2.423,2.774 -5.211,2.942 -8.901,3.865 -3.479,1.263 -7.049,2.685 -10.521,4.01 7.465,-30.041 17.177,-65.063 25.693,-94.981 z"
     id="path62" />
  <path
     fill="#1b3a3d"
     d="m 1125.8814,659.47424 c 3.91,3.539 23.43,82.922 26.94,94.767 l -10.63,-4.057 -8.86,-3.3 c -6.15,-21.203 -16.39,-55.889 -20.61,-76.852 z"
     id="path63" />
</svg>
